<svg width="20" height="20" viewBox="0 0 20 20" fill="none" xmlns="http://www.w3.org/2000/svg">
<path d="M5.5894 2.74441L7.3569 4.51191C7.5087 4.66907 7.59269 4.87958 7.5908 5.09807C7.5889 5.31657 7.50126 5.52558 7.34675 5.68009C7.19224 5.83459 6.98323 5.92224 6.76473 5.92413C6.54624 5.92603 6.33574 5.84204 6.17857 5.69024L5.83357 5.34524V14.6552L6.17857 14.3102C6.25544 14.2306 6.34739 14.1672 6.44906 14.1235C6.55073 14.0798 6.66008 14.0568 6.77073 14.0559C6.88138 14.0549 6.99112 14.076 7.09353 14.1179C7.19594 14.1598 7.28899 14.2217 7.36723 14.2999C7.44547 14.3782 7.50735 14.4712 7.54925 14.5736C7.59115 14.676 7.61224 14.7858 7.61128 14.8964C7.61031 15.0071 7.58733 15.1164 7.54365 15.2181C7.49998 15.3197 7.43649 15.4117 7.3569 15.4886L5.59023 17.2561C5.51284 17.3336 5.42093 17.395 5.31977 17.437C5.2186 17.4789 5.11016 17.5005 5.00065 17.5005C4.89114 17.5005 4.7827 17.4789 4.68153 17.437C4.58037 17.395 4.48846 17.3336 4.41107 17.2561L2.64357 15.4886C2.56398 15.4117 2.50049 15.3197 2.45682 15.2181C2.41314 15.1164 2.39015 15.0071 2.38919 14.8964C2.38823 14.7858 2.40931 14.676 2.45122 14.5736C2.49312 14.4712 2.55499 14.3782 2.63324 14.2999C2.71148 14.2217 2.80452 14.1598 2.90694 14.1179C3.00935 14.076 3.11909 14.0549 3.22973 14.0559C3.34038 14.0568 3.44973 14.0798 3.5514 14.1235C3.65307 14.1672 3.74503 14.2306 3.8219 14.3102L4.1669 14.6552V5.34524L3.8219 5.69024C3.66473 5.84204 3.45423 5.92603 3.23573 5.92413C3.01724 5.92224 2.80822 5.83459 2.65372 5.68009C2.49921 5.52558 2.41157 5.31657 2.40967 5.09807C2.40777 4.87958 2.49177 4.66907 2.64357 4.51191L4.41023 2.74441C4.48763 2.66693 4.57953 2.60546 4.6807 2.56352C4.78186 2.52159 4.8903 2.5 4.99982 2.5C5.10933 2.5 5.21777 2.52159 5.31893 2.56352C5.4201 2.60546 5.51201 2.66693 5.5894 2.74441ZM16.6669 15.0002C16.8793 15.0005 17.0836 15.0818 17.238 15.2276C17.3925 15.3734 17.4854 15.5727 17.4979 15.7847C17.5103 15.9968 17.4413 16.2056 17.305 16.3684C17.1687 16.5313 16.9753 16.636 16.7644 16.6611L16.6669 16.6669H10.0002C9.78783 16.6667 9.58354 16.5853 9.42909 16.4395C9.27465 16.2937 9.1817 16.0944 9.16926 15.8824C9.15681 15.6704 9.2258 15.4616 9.36212 15.2987C9.49845 15.1358 9.69182 15.0312 9.90273 15.0061L10.0002 15.0002H16.6669ZM16.6669 9.1669C16.8793 9.16714 17.0836 9.24847 17.238 9.39428C17.3925 9.54009 17.4854 9.73937 17.4979 9.9514C17.5103 10.1634 17.4413 10.3722 17.305 10.5351C17.1687 10.698 16.9753 10.8027 16.7644 10.8277L16.6669 10.8336H10.0002C9.78783 10.8333 9.58354 10.752 9.42909 10.6062C9.27465 10.4604 9.1817 10.2611 9.16926 10.0491C9.15681 9.83704 9.2258 9.62826 9.36212 9.46538C9.49845 9.3025 9.69182 9.19782 9.90273 9.17274L10.0002 9.1669H16.6669ZM16.6669 3.33357C16.8879 3.33357 17.0999 3.42137 17.2562 3.57765C17.4124 3.73393 17.5002 3.94589 17.5002 4.16691C17.5002 4.38792 17.4124 4.59988 17.2562 4.75616C17.0999 4.91244 16.8879 5.00024 16.6669 5.00024H10.0002C9.77922 5.00024 9.56726 4.91244 9.41098 4.75616C9.2547 4.59988 9.1669 4.38792 9.1669 4.16691C9.1669 3.94589 9.2547 3.73393 9.41098 3.57765C9.56726 3.42137 9.77922 3.33357 10.0002 3.33357H16.6669Z" fill="#111111"/>
</svg>
