<svg width="24" height="24" viewBox="0 0 24 24" fill="none" xmlns="http://www.w3.org/2000/svg">
<g clip-path="url(#clip0_6069_4628)">
<path d="M13.4142 2.80799L21.1922 10.586C21.378 10.7717 21.5254 10.9922 21.626 11.2349C21.7266 11.4776 21.7783 11.7378 21.7783 12.0005C21.7783 12.2632 21.7266 12.5233 21.626 12.766C21.5254 13.0087 21.378 13.2293 21.1922 13.415L13.4142 21.193C13.0392 21.5679 12.5306 21.7786 12.0002 21.7786C11.4699 21.7786 10.9613 21.5679 10.5862 21.193L2.80824 13.415C2.62244 13.2293 2.47505 13.0087 2.37449 12.766C2.27393 12.5233 2.22217 12.2632 2.22217 12.0005C2.22217 11.7378 2.27393 11.4776 2.37449 11.2349C2.47505 10.9922 2.62244 10.7717 2.80824 10.586L10.5862 2.80799C10.9613 2.43304 11.4699 2.22241 12.0002 2.22241C12.5306 2.22241 13.0392 2.43304 13.4142 2.80799ZM12.0002 4.22199L4.22224 12L12.0002 19.78L19.7782 12L12.0002 4.22199ZM12.0022 15C12.2571 15.0003 12.5023 15.0979 12.6876 15.2728C12.8729 15.4478 12.9845 15.6869 12.9994 15.9414C13.0143 16.1958 12.9316 16.4464 12.768 16.6418C12.6044 16.8373 12.3723 16.9629 12.1192 16.993L12.0022 17C11.7472 17.0002 11.5017 16.903 11.316 16.7282C11.1302 16.5534 11.0183 16.3142 11.0031 16.0596C10.9879 15.805 11.0706 15.5542 11.2342 15.3585C11.3978 15.1629 11.63 15.0371 11.8832 15.007L12.0022 15ZM12.0002 7.99998C12.8672 7.99998 13.5382 8.75998 13.4302 9.61998L12.9922 13.124C12.9615 13.3654 12.8438 13.5873 12.6612 13.7482C12.4786 13.909 12.2436 13.9977 12.0002 13.9977C11.7569 13.9977 11.5219 13.909 11.3393 13.7482C11.1567 13.5873 11.039 13.3654 11.0082 13.124L10.5702 9.61998C10.5449 9.41721 10.5629 9.21135 10.6232 9.01607C10.6834 8.8208 10.7845 8.64058 10.9198 8.48737C11.055 8.33416 11.2213 8.21147 11.4076 8.12744C11.5939 8.04341 11.7959 7.99996 12.0002 7.99998Z" fill="#333333"/>
</g>
<defs>
<clipPath id="clip0_6069_4628">
<rect width="24" height="24" fill="white"/>
</clipPath>
</defs>
</svg>
