<svg width="24" height="24" viewBox="0 0 24 24" fill="none" xmlns="http://www.w3.org/2000/svg">
<g clip-path="url(#clip0_6069_4640)">
<path d="M13.2992 3.14801L21.9332 18.102C22.0648 18.33 22.1341 18.5887 22.1341 18.852C22.1341 19.1153 22.0648 19.374 21.9332 19.602C21.8015 19.83 21.6122 20.0194 21.3842 20.151C21.1561 20.2827 20.8975 20.352 20.6342 20.352H3.36617C3.10287 20.352 2.84421 20.2827 2.61619 20.151C2.38816 20.0194 2.19881 19.83 2.06716 19.602C1.93552 19.374 1.86621 19.1153 1.86621 18.852C1.86621 18.5887 1.93552 18.33 2.06717 18.102L10.7012 3.14801C11.2782 2.14801 12.7212 2.14801 13.2992 3.14801ZM12.0002 15C11.735 15 11.4806 15.1054 11.2931 15.2929C11.1055 15.4804 11.0002 15.7348 11.0002 16C11.0002 16.2652 11.1055 16.5196 11.2931 16.7071C11.4806 16.8947 11.735 17 12.0002 17C12.2654 17 12.5197 16.8947 12.7073 16.7071C12.8948 16.5196 13.0002 16.2652 13.0002 16C13.0002 15.7348 12.8948 15.4804 12.7073 15.2929C12.5197 15.1054 12.2654 15 12.0002 15ZM12.0002 8.00001C11.7552 8.00004 11.5188 8.08997 11.3358 8.25273C11.1528 8.41548 11.0358 8.63976 11.0072 8.88301L11.0002 9.00001V13C11.0005 13.2549 11.0981 13.5 11.273 13.6854C11.448 13.8707 11.6871 13.9822 11.9416 13.9972C12.196 14.0121 12.4466 13.9293 12.642 13.7657C12.8375 13.6022 12.9631 13.3701 12.9932 13.117L13.0002 13V9.00001C13.0002 8.73479 12.8948 8.48044 12.7073 8.2929C12.5197 8.10537 12.2654 8.00001 12.0002 8.00001Z" fill="#333333"/>
</g>
<defs>
<clipPath id="clip0_6069_4640">
<rect width="24" height="24" fill="white"/>
</clipPath>
</defs>
</svg>
