<svg width="24" height="24" viewBox="0 0 24 24" fill="none" xmlns="http://www.w3.org/2000/svg">
<g clip-path="url(#clip0_6069_4636)">
<path d="M13.2992 3.14801L21.9332 18.102C22.0648 18.33 22.1341 18.5887 22.1341 18.852C22.1341 19.1153 22.0648 19.374 21.9332 19.602C21.8015 19.83 21.6122 20.0194 21.3842 20.151C21.1561 20.2827 20.8975 20.352 20.6342 20.352H3.36617C3.10287 20.352 2.84421 20.2827 2.61619 20.151C2.38816 20.0194 2.19881 19.83 2.06716 19.602C1.93552 19.374 1.86621 19.1153 1.86621 18.852C1.86621 18.5887 1.93552 18.33 2.06717 18.102L10.7012 3.14801C11.2782 2.14801 12.7212 2.14801 13.2992 3.14801ZM12.0002 4.89801L4.23217 18.352H19.7682L12.0002 4.89801ZM12.0002 15C12.2654 15 12.5197 15.1054 12.7073 15.2929C12.8948 15.4804 13.0002 15.7348 13.0002 16C13.0002 16.2652 12.8948 16.5196 12.7073 16.7071C12.5197 16.8947 12.2654 17 12.0002 17C11.735 17 11.4806 16.8947 11.2931 16.7071C11.1055 16.5196 11.0002 16.2652 11.0002 16C11.0002 15.7348 11.1055 15.4804 11.2931 15.2929C11.4806 15.1054 11.735 15 12.0002 15ZM12.0002 8.00001C12.2654 8.00001 12.5197 8.10537 12.7073 8.2929C12.8948 8.48044 13.0002 8.73479 13.0002 9.00001V13C13.0002 13.2652 12.8948 13.5196 12.7073 13.7071C12.5197 13.8947 12.2654 14 12.0002 14C11.735 14 11.4806 13.8947 11.2931 13.7071C11.1055 13.5196 11.0002 13.2652 11.0002 13V9.00001C11.0002 8.73479 11.1055 8.48044 11.2931 8.2929C11.4806 8.10537 11.735 8.00001 12.0002 8.00001Z" fill="#333333"/>
</g>
<defs>
<clipPath id="clip0_6069_4636">
<rect width="24" height="24" fill="white"/>
</clipPath>
</defs>
</svg>
