<svg width="24" height="24" viewBox="0 0 24 24" fill="none" xmlns="http://www.w3.org/2000/svg">
<g clip-path="url(#clip0_6125_19088)">
<path d="M20 8C20.5046 7.99984 20.9906 8.1904 21.3605 8.53349C21.7305 8.87658 21.9572 9.34684 21.995 9.85L22 10V19C22.0002 19.5046 21.8096 19.9906 21.4665 20.3605C21.1234 20.7305 20.6532 20.9572 20.15 20.995L20 21H10C9.49542 21.0002 9.00943 20.8096 8.63945 20.4665C8.26947 20.1234 8.04284 19.6532 8.005 19.15L8 19V10C7.99984 9.49542 8.19041 9.00943 8.5335 8.63945C8.87659 8.26947 9.34685 8.04284 9.85 8.005L10 8H20ZM20 10H10V19H20V10ZM10.94 3.658C10.985 3.78143 11.0051 3.91252 10.9994 4.04377C10.9937 4.17501 10.9622 4.30384 10.9066 4.42289C10.8511 4.54195 10.7726 4.64889 10.6758 4.73762C10.5789 4.82635 10.4655 4.89511 10.342 4.94C8.463 5.623 7.082 6.982 6.08 8.456C5.078 9.93 4.496 11.464 4.205 12.391C3.974 13.126 3.257 13.192 2.972 13.151C2.688 13.111 2 12.844 2 12.056V7C2 6.73478 2.10536 6.48043 2.29289 6.29289C2.48043 6.10535 2.73478 6 3 6C3.26522 6 3.51957 6.10535 3.70711 6.29289C3.89464 6.48043 4 6.73478 4 7V7.995C4.134 7.775 4.275 7.553 4.426 7.331C5.576 5.638 7.261 3.931 9.658 3.06C9.78144 3.01504 9.91253 2.99486 10.0438 3.00058C10.175 3.00631 10.3038 3.03784 10.4229 3.09338C10.542 3.14891 10.6489 3.22736 10.7376 3.32424C10.8264 3.42112 10.8951 3.53453 10.94 3.658Z" fill="#333333"/>
</g>
<defs>
<clipPath id="clip0_6125_19088">
<rect width="24" height="24" fill="white"/>
</clipPath>
</defs>
</svg>
