<svg width="17" height="15" viewBox="0 0 17 15" fill="none" xmlns="http://www.w3.org/2000/svg">
<path d="M15 8.35567e-08C15.4205 -0.000132983 15.8255 0.158672 16.1338 0.444581C16.4421 0.73049 16.631 1.12237 16.6625 1.54167L16.6667 1.66667V13.3333C16.6668 13.7538 16.508 14.1588 16.2221 14.4671C15.9362 14.7754 15.5443 14.9643 15.125 14.9958L15 15H1.66667C1.24619 15.0001 0.841195 14.8413 0.532877 14.5554C0.224559 14.2695 0.0357028 13.8776 0.00416685 13.4583L8.35567e-08 13.3333V1.66667C-0.000132983 1.24619 0.158672 0.841195 0.444581 0.532877C0.73049 0.224559 1.12237 0.0357028 1.54167 0.00416685L1.66667 8.35567e-08H15ZM6.56583 7.54167L1.85167 12.2558C1.79682 12.3109 1.73455 12.358 1.66667 12.3958V13.3333H15V12.3958C14.9321 12.358 14.8698 12.3109 14.815 12.2558L12.4583 9.9L11.8692 10.4892L12.0417 10.6617C12.119 10.7391 12.1804 10.831 12.2223 10.9321C12.2641 11.0333 12.2856 11.1417 12.2856 11.2511C12.2855 11.3606 12.2639 11.469 12.222 11.5701C12.1801 11.6712 12.1187 11.763 12.0412 11.8404C11.9638 11.9178 11.8719 11.9791 11.7708 12.021C11.6696 12.0629 11.5612 12.0844 11.4518 12.0843C11.3423 12.0843 11.234 12.0627 11.1328 12.0208C11.0317 11.9789 10.9399 11.9174 10.8625 11.84L6.56667 7.54167H6.56583ZM15 1.66667H1.66667V10.0833L5.82917 5.92167C6.01062 5.74026 6.25263 5.63221 6.50883 5.61821C6.76502 5.60422 7.01737 5.68527 7.2175 5.84583L7.30167 5.92083L10.69 9.31L11.7217 8.27833C11.9031 8.09693 12.1451 7.98887 12.4013 7.97488C12.6575 7.96089 12.9099 8.04194 13.11 8.2025L13.195 8.27833L15 10.0842V1.66667ZM11.25 3.33333C11.5815 3.33333 11.8995 3.46503 12.1339 3.69945C12.3683 3.93387 12.5 4.25181 12.5 4.58333C12.5 4.91485 12.3683 5.2328 12.1339 5.46722C11.8995 5.70164 11.5815 5.83333 11.25 5.83333C10.9185 5.83333 10.6005 5.70164 10.3661 5.46722C10.1317 5.2328 10 4.91485 10 4.58333C10 4.25181 10.1317 3.93387 10.3661 3.69945C10.6005 3.46503 10.9185 3.33333 11.25 3.33333Z" fill="#4F4F4F"/>
</svg>
