<svg width="24" height="24" viewBox="0 0 24 24" fill="none" xmlns="http://www.w3.org/2000/svg">
<path d="M11.9818 1C5.90909 1 1 5.90909 1 11.9818C1 18.0545 5.90909 23 11.9818 23C18.0545 23 23 18.0545 23 11.9818C23 5.90909 18.0545 1 11.9818 1ZM11.9818 21C6.81818 21 3 17.1455 3 11.9818C3 6.81818 6.81818 3 11.9818 3C17.1455 3 21 6.85455 21 12.0182C21 17.1455 17.1455 21 11.9818 21Z" fill="#333333"/>
<path d="M11.9901 6C8.67769 6 6 8.67769 6 11.9901C6 15.3025 8.67769 18 11.9901 18C15.3025 18 18 15.3025 18 11.9901C18 8.67769 15.3025 6 11.9901 6Z" fill="#333333"/>
</svg>
