<svg width="20" height="18" viewBox="0 0 20 18" fill="none" xmlns="http://www.w3.org/2000/svg">
<path fill-rule="evenodd" clip-rule="evenodd" d="M9.121 17.115C8.84623 16.9455 8.56137 16.7928 8.268 16.658C7.535 16.319 6.557 16 5.5 16C4.221 16 3.062 16.468 2.32 16.862C2.08582 16.9846 1.82479 17.047 1.56047 17.0435C1.29615 17.04 1.03686 16.9708 0.806 16.842C0.563541 16.7113 0.360752 16.5177 0.21893 16.2816C0.077107 16.0454 0.00148336 15.7754 0 15.5V3C0 2.379 0.295 1.737 0.898 1.371C1.672 0.901 3.414 0 5.5 0C7.081 0 8.645 0.51 10 1.31C11.355 0.51 12.919 0 14.5 0C16.586 0 18.328 0.9 19.102 1.371C19.705 1.737 20 2.379 20 3V15.5C20 16.133 19.621 16.606 19.194 16.842C18.963 16.9709 18.7035 17.0403 18.439 17.0438C18.1745 17.0473 17.9133 16.9848 17.679 16.862C16.938 16.468 15.779 16 14.5 16C13.443 16 12.465 16.32 11.732 16.658C11.4386 16.7928 11.1538 16.9455 10.879 17.115C10.595 17.292 10.355 17.5 10.001 17.5C9.645 17.5 9.406 17.292 9.121 17.115ZM2 14.794V3.042C2.673 2.642 4 2 5.5 2C6.73 2 7.948 2.418 9 3.042V14.794C8.115 14.398 6.887 14 5.5 14C4.119 14 2.891 14.395 2 14.794ZM11 14.794C11.885 14.398 13.113 14 14.5 14C15.881 14 17.109 14.395 18 14.794V3.042C17.327 2.642 16 2 14.5 2C13.27 2 12.052 2.418 11 3.042V14.794Z" fill="#4F4F4F"/>
</svg>
