<svg width="13" height="18" viewBox="0 0 13 18" fill="none" xmlns="http://www.w3.org/2000/svg">
<path d="M7.5 1C7.5 0.734784 7.39464 0.48043 7.20711 0.292893C7.01957 0.105357 6.76522 0 6.5 0C6.23478 0 5.98043 0.105357 5.79289 0.292893C5.60536 0.48043 5.5 0.734784 5.5 1V2H4C2.93913 2 1.92172 2.42143 1.17157 3.17157C0.421427 3.92172 0 4.93913 0 6C0 7.06087 0.421427 8.07828 1.17157 8.82843C1.92172 9.57857 2.93913 10 4 10H9C9.53043 10 10.0391 10.2107 10.4142 10.5858C10.7893 10.9609 11 11.4696 11 12C11 12.5304 10.7893 13.0391 10.4142 13.4142C10.0391 13.7893 9.53043 14 9 14H1.5C1.23478 14 0.98043 14.1054 0.792893 14.2929C0.605357 14.4804 0.5 14.7348 0.5 15C0.5 15.2652 0.605357 15.5196 0.792893 15.7071C0.98043 15.8946 1.23478 16 1.5 16H5.5V17C5.5 17.2652 5.60536 17.5196 5.79289 17.7071C5.98043 17.8946 6.23478 18 6.5 18C6.76522 18 7.01957 17.8946 7.20711 17.7071C7.39464 17.5196 7.5 17.2652 7.5 17V16H9C10.0609 16 11.0783 15.5786 11.8284 14.8284C12.5786 14.0783 13 13.0609 13 12C13 10.9391 12.5786 9.92172 11.8284 9.17157C11.0783 8.42143 10.0609 8 9 8H4C3.46957 8 2.96086 7.78929 2.58579 7.41421C2.21071 7.03914 2 6.53043 2 6C2 5.46957 2.21071 4.96086 2.58579 4.58579C2.96086 4.21071 3.46957 4 4 4H11.5C11.7652 4 12.0196 3.89464 12.2071 3.70711C12.3946 3.51957 12.5 3.26522 12.5 3C12.5 2.73478 12.3946 2.48043 12.2071 2.29289C12.0196 2.10536 11.7652 2 11.5 2H7.5V1Z" fill="#4F4F4F"/>
</svg>
