<svg width="18" height="17" viewBox="0 0 18 17" fill="none" xmlns="http://www.w3.org/2000/svg">
<path d="M11 15C11.2549 15.0003 11.5 15.0979 11.6854 15.2728C11.8707 15.4478 11.9822 15.687 11.9972 15.9414C12.0121 16.1958 11.9293 16.4464 11.7657 16.6418C11.6021 16.8373 11.3701 16.9629 11.117 16.993L11 17H1C0.74512 16.9997 0.499968 16.9021 0.314632 16.7272C0.129296 16.5522 0.017765 16.313 0.00282788 16.0586C-0.0121092 15.8042 0.0706746 15.5536 0.234265 15.3582C0.397855 15.1627 0.629904 15.0371 0.883 15.007L1 15H11ZM17 10C17.2652 10 17.5196 10.1054 17.7071 10.2929C17.8946 10.4804 18 10.7348 18 11C18 11.2652 17.8946 11.5196 17.7071 11.7071C17.5196 11.8946 17.2652 12 17 12H1C0.734784 12 0.48043 11.8946 0.292893 11.7071C0.105357 11.5196 0 11.2652 0 11C0 10.7348 0.105357 10.4804 0.292893 10.2929C0.48043 10.1054 0.734784 10 1 10H17ZM11 5C11.2549 5.00028 11.5 5.09788 11.6854 5.27285C11.8707 5.44782 11.9822 5.68695 11.9972 5.94139C12.0121 6.19584 11.9293 6.44638 11.7657 6.64183C11.6021 6.83729 11.3701 6.9629 11.117 6.993L11 7H1C0.74512 6.99972 0.499968 6.90212 0.314632 6.72715C0.129296 6.55218 0.017765 6.31305 0.00282788 6.05861C-0.0121092 5.80416 0.0706746 5.55362 0.234265 5.35817C0.397855 5.16271 0.629904 5.0371 0.883 5.007L1 5H11ZM17 0C17.2549 0.000282707 17.5 0.0978791 17.6854 0.272848C17.8707 0.447818 17.9822 0.686953 17.9972 0.941395C18.0121 1.19584 17.9293 1.44638 17.7657 1.64183C17.6021 1.83729 17.3701 1.9629 17.117 1.993L17 2H1C0.74512 1.99972 0.499968 1.90212 0.314632 1.72715C0.129296 1.55218 0.017765 1.31305 0.00282788 1.05861C-0.0121092 0.804163 0.0706746 0.553621 0.234265 0.358167C0.397855 0.162714 0.629904 0.0371036 0.883 0.00699997L1 0H17Z" fill="#4F4F4F"/>
</svg>
