<svg width="16" height="20" viewBox="0 0 16 20" fill="none" xmlns="http://www.w3.org/2000/svg">
<path d="M14 0C14.5304 0 15.0391 0.210714 15.4142 0.585786C15.7893 0.960859 16 1.46957 16 2V14.99C16 15.158 15.962 15.312 15.887 15.462L15.342 16.552C15.2725 16.6909 15.2363 16.8441 15.2363 16.9995C15.2363 17.1549 15.2725 17.3081 15.342 17.447L15.885 18.535C15.965 18.6874 16.0044 18.8578 15.9992 19.0299C15.9941 19.2019 15.9446 19.3697 15.8556 19.5171C15.7666 19.6644 15.6411 19.7863 15.4912 19.8709C15.3413 19.9555 15.1721 19.9999 15 20H3C2.20435 20 1.44129 19.6839 0.87868 19.1213C0.316071 18.5587 0 17.7956 0 17V3C0 2.20435 0.316071 1.44129 0.87868 0.87868C1.44129 0.316071 2.20435 0 3 0H14ZM13.408 16H3C2.74512 16.0003 2.49997 16.0979 2.31463 16.2728C2.1293 16.4478 2.01777 16.687 2.00283 16.9414C1.98789 17.1958 2.07067 17.4464 2.23426 17.6418C2.39786 17.8373 2.6299 17.9629 2.883 17.993L3 18H13.408C13.2053 17.4266 13.1816 16.8052 13.34 16.218L13.408 16ZM14 2H3C2.75507 2.00003 2.51866 2.08996 2.33563 2.25272C2.15259 2.41547 2.03566 2.63975 2.007 2.883L2 3V14.17C2.25 14.082 2.516 14.026 2.791 14.007L3 14H14V2ZM10 5C10.2549 5.00028 10.5 5.09788 10.6854 5.27285C10.8707 5.44782 10.9822 5.68695 10.9972 5.94139C11.0121 6.19584 10.9293 6.44638 10.7657 6.64183C10.6021 6.83729 10.3701 6.9629 10.117 6.993L10 7H6C5.74512 6.99972 5.49997 6.90212 5.31463 6.72715C5.1293 6.55218 5.01776 6.31305 5.00283 6.05861C4.98789 5.80416 5.07067 5.55362 5.23426 5.35817C5.39785 5.16271 5.6299 5.0371 5.883 5.007L6 5H10Z" fill="#4F4F4F"/>
</svg>
