<svg width="23" height="23" viewBox="0 0 23 23" fill="none" xmlns="http://www.w3.org/2000/svg">
<path fill-rule="evenodd" clip-rule="evenodd" d="M6 3.5C6 1.56772 7.56772 0 9.5 0C11.4323 0 13 1.56772 13 3.5V4H16C17.6523 4 19 5.34772 19 7V10H19.5C21.4323 10 23 11.5677 23 13.5C23 15.4323 21.4323 17 19.5 17H19V20C19 21.6523 17.6523 23 16 23H11.2V20.5C11.2 19.5623 10.4377 18.8 9.5 18.8C8.56229 18.8 7.8 19.5623 7.8 20.5V23H3C1.34772 23 0 21.6523 0 20V15.2H2.5C3.43771 15.2 4.2 14.4377 4.2 13.5C4.2 12.5623 3.43772 11.8 2.5 11.8H0.00999999V7C0.00999999 5.35425 1.3412 4 3 4H6V3.5ZM9.5 2C8.67229 2 8 2.67228 8 3.5V6H3C2.4588 6 2.01 6.44575 2.01 7V9.8H2.5C4.54228 9.8 6.2 11.4577 6.2 13.5C6.2 15.5423 4.54228 17.2 2.5 17.2H2V20C2 20.5477 2.45228 21 3 21H5.8V20.5C5.8 18.4577 7.45771 16.8 9.5 16.8C11.5423 16.8 13.2 18.4577 13.2 20.5V21H16C16.5477 21 17 20.5477 17 20V15H19.5C20.3277 15 21 14.3277 21 13.5C21 12.6723 20.3277 12 19.5 12H17V7C17 6.45228 16.5477 6 16 6H11V3.5C11 2.67228 10.3277 2 9.5 2Z" fill="#4F4F4F"/>
</svg>
