<svg width="20" height="20" viewBox="0 0 20 20" fill="none" xmlns="http://www.w3.org/2000/svg">
<path fill-rule="evenodd" clip-rule="evenodd" d="M8.7469 0.778896C8.80544 1.03748 8.75889 1.30872 8.6175 1.533C8.47611 1.75727 8.25144 1.91622 7.9929 1.9749C7.79665 2.01948 7.60218 2.07152 7.40989 2.1309C7.28442 2.16964 7.15254 2.18328 7.02179 2.17105C6.89103 2.15883 6.76397 2.12097 6.64785 2.05963C6.53173 1.9983 6.42883 1.9147 6.34502 1.81359C6.26121 1.71249 6.19814 1.59587 6.1594 1.4704C6.12066 1.34492 6.10701 1.21304 6.11924 1.08229C6.13146 0.951535 6.16933 0.824472 6.23066 0.708352C6.29199 0.592233 6.3756 0.48933 6.4767 0.405521C6.5778 0.321712 6.69442 0.258636 6.8199 0.219896C7.0599 0.145896 7.3039 0.0798963 7.5499 0.0248963C7.678 -0.00423666 7.81059 -0.00784071 7.94009 0.0142898C8.06959 0.0364202 8.19347 0.0838514 8.30463 0.153873C8.41579 0.223895 8.51206 0.315135 8.58795 0.42238C8.66384 0.529624 8.71785 0.65077 8.7469 0.778896ZM10.7969 0.778896C10.8556 0.520347 11.0145 0.295681 11.2388 0.15429C11.4631 0.0128992 11.7343 -0.0336427 11.9929 0.0248963C16.4469 1.0349 19.7729 5.0169 19.7729 9.7769C19.7729 15.2999 15.2949 19.7769 9.7729 19.7769C5.0119 19.7769 1.0299 16.4519 0.0198953 11.9979C-0.0319462 11.7419 0.0184469 11.4757 0.160297 11.2564C0.302147 11.037 0.524192 10.8819 0.778945 10.8242C1.0337 10.7664 1.30093 10.8107 1.52349 10.9474C1.74606 11.0841 1.90628 11.3025 1.9699 11.5559C2.28811 12.9497 2.974 14.2327 3.9562 15.2715C4.93839 16.3103 6.18102 17.0669 7.55478 17.4626C8.92854 17.8583 10.3832 17.8787 11.7675 17.5216C13.1518 17.1645 14.4152 16.4429 15.4261 15.4321C16.4369 14.4212 17.1585 13.1578 17.5156 11.7735C17.8727 10.3892 17.8523 8.93454 17.4566 7.56078C17.0609 6.18702 16.3043 4.94439 15.2655 3.9622C14.2267 2.98 12.9437 2.29411 11.5499 1.9759C11.2913 1.91701 11.0667 1.75782 10.9255 1.53334C10.7843 1.30886 10.738 1.03748 10.7969 0.778896ZM4.3859 2.4969C4.47533 2.59319 4.5449 2.70616 4.59064 2.82936C4.63638 2.95255 4.65739 3.08356 4.65247 3.21488C4.64755 3.3462 4.61679 3.47527 4.56196 3.5947C4.50712 3.71412 4.42928 3.82157 4.3329 3.9109C4.1849 4.0469 4.0429 4.1899 3.9059 4.3369C3.72424 4.52592 3.47561 4.63604 3.21356 4.64356C2.9515 4.65107 2.69698 4.55538 2.50478 4.37708C2.31259 4.19878 2.1981 3.95214 2.18596 3.69026C2.17383 3.42838 2.26501 3.17221 2.4399 2.9769C2.6099 2.7929 2.7879 2.6149 2.9719 2.4439C3.06819 2.35446 3.18116 2.28489 3.30436 2.23915C3.42755 2.19341 3.55856 2.1724 3.68988 2.17732C3.8212 2.18224 3.95027 2.213 4.06969 2.26784C4.18912 2.32267 4.29657 2.40051 4.3859 2.4969ZM9.7719 3.7769C10.0371 3.7769 10.2915 3.88225 10.479 4.06979C10.6665 4.25733 10.7719 4.51168 10.7719 4.7769V9.3629L13.4789 12.0699C13.6611 12.2585 13.7618 12.5111 13.7596 12.7733C13.7573 13.0355 13.6521 13.2863 13.4667 13.4717C13.2813 13.6571 13.0305 13.7623 12.7683 13.7646C12.5061 13.7668 12.2535 13.6661 12.0649 13.4839L9.0649 10.4839C8.87735 10.2964 8.77195 10.0421 8.7719 9.7769V4.7769C8.7719 4.51168 8.87725 4.25733 9.06479 4.06979C9.25233 3.88225 9.50668 3.7769 9.7719 3.7769ZM1.4649 6.1649C1.71829 6.24304 1.93027 6.41862 2.05423 6.65303C2.17818 6.88744 2.20396 7.16148 2.1259 7.4149C2.06653 7.60718 2.01449 7.80166 1.9699 7.9979C1.90628 8.25125 1.74606 8.46965 1.52349 8.60639C1.30093 8.74313 1.0337 8.78736 0.778945 8.72962C0.524192 8.67188 0.302147 8.51674 0.160297 8.2974C0.0184469 8.07806 -0.0319462 7.81192 0.0198953 7.5559C0.0758953 7.3089 0.140895 7.0659 0.214895 6.8259C0.293035 6.5725 0.468616 6.36052 0.703026 6.23657C0.937436 6.11261 1.21148 6.08683 1.4649 6.1649Z" fill="#4F4F4F"/>
</svg>
