<svg width="60" height="60" viewBox="0 0 60 60" fill="none" xmlns="http://www.w3.org/2000/svg">
<g clip-path="url(#clip0_3318_1030)">
<path d="M33.2474 7.87012L54.8324 45.2551C55.1616 45.8252 55.3348 46.4718 55.3349 47.1301C55.3349 47.7883 55.1616 48.435 54.8325 49.0051C54.5034 49.5751 54.03 50.0485 53.4599 50.3777C52.8899 50.7068 52.2432 50.8801 51.5849 50.8801H8.41494C7.75669 50.8801 7.11004 50.7068 6.53998 50.3777C5.96992 50.0485 5.49654 49.5751 5.16742 49.0051C4.8383 48.435 4.66503 47.7883 4.66504 47.1301C4.66504 46.4718 4.83832 45.8252 5.16744 45.2551L26.7524 7.87012C28.1949 5.37012 31.8024 5.37012 33.2474 7.87012ZM29.9999 37.5001C29.3369 37.5001 28.701 37.7635 28.2322 38.2324C27.7633 38.7012 27.4999 39.3371 27.4999 40.0001C27.4999 40.6632 27.7633 41.299 28.2322 41.7679C28.701 42.2367 29.3369 42.5001 29.9999 42.5001C30.663 42.5001 31.2989 42.2367 31.7677 41.7679C32.2366 41.299 32.4999 40.6632 32.4999 40.0001C32.4999 39.3371 32.2366 38.7012 31.7677 38.2324C31.2989 37.7635 30.663 37.5001 29.9999 37.5001ZM29.9999 20.0001C29.3876 20.0002 28.7966 20.225 28.339 20.6319C27.8814 21.0388 27.5891 21.5995 27.5174 22.2076L27.4999 22.5001V32.5001C27.5007 33.1373 27.7446 33.7502 28.1821 34.2135C28.6195 34.6769 29.2173 34.9557 29.8534 34.993C30.4895 35.0304 31.1159 34.8234 31.6045 34.4145C32.0932 34.0055 32.4072 33.4254 32.4824 32.7926L32.4999 32.5001V22.5001C32.4999 21.8371 32.2366 21.2012 31.7677 20.7324C31.2989 20.2635 30.663 20.0001 29.9999 20.0001Z" fill="#E31A1A"/>
</g>
<defs>
<clipPath id="clip0_3318_1030">
<rect width="60" height="60" fill="white"/>
</clipPath>
</defs>
</svg>
