<svg width="15" height="14" viewBox="0 0 15 14" fill="none" xmlns="http://www.w3.org/2000/svg">
<path d="M14.1667 11.6667C14.3791 11.6669 14.5834 11.7482 14.7378 11.894C14.8923 12.0398 14.9852 12.2391 14.9976 12.4512C15.0101 12.6632 14.9411 12.872 14.8048 13.0349C14.6685 13.1977 14.4751 13.3024 14.2642 13.3275L14.1667 13.3333H0.833333C0.620934 13.3331 0.41664 13.2518 0.262193 13.106C0.107746 12.9602 0.0148042 12.7609 0.00235657 12.5488C-0.010091 12.3368 0.0588955 12.128 0.195221 11.9651C0.331546 11.8023 0.52492 11.6976 0.735833 11.6725L0.833333 11.6667H14.1667ZM14.1667 5.83333C14.3877 5.83333 14.5996 5.92113 14.7559 6.07741C14.9122 6.23369 15 6.44565 15 6.66667C15 6.88768 14.9122 7.09964 14.7559 7.25592C14.5996 7.4122 14.3877 7.5 14.1667 7.5H0.833333C0.61232 7.5 0.400358 7.4122 0.244078 7.25592C0.0877973 7.09964 0 6.88768 0 6.66667C0 6.44565 0.0877973 6.23369 0.244078 6.07741C0.400358 5.92113 0.61232 5.83333 0.833333 5.83333H14.1667ZM14.1667 0C14.3877 0 14.5996 0.0877975 14.7559 0.244078C14.9122 0.400358 15 0.61232 15 0.833333C15 1.05435 14.9122 1.26631 14.7559 1.42259C14.5996 1.57887 14.3877 1.66667 14.1667 1.66667H0.833333C0.61232 1.66667 0.400358 1.57887 0.244078 1.42259C0.0877973 1.26631 0 1.05435 0 0.833333C0 0.61232 0.0877973 0.400358 0.244078 0.244078C0.400358 0.0877975 0.61232 0 0.833333 0H14.1667Z" fill="#7067ED"/>
</svg>
