<svg width="24" height="24" viewBox="0 0 24 24" fill="none" xmlns="http://www.w3.org/2000/svg">
<g clip-path="url(#clip0_6125_19087)">
<path fill-rule="evenodd" clip-rule="evenodd" d="M18.793 7.86396C19.955 8.27896 19.657 9.99996 18.423 9.99996H5.1C4.80826 9.99996 4.52847 9.88407 4.32218 9.67778C4.11589 9.47149 4 9.1917 4 8.89996V4.14197C3.99998 3.96568 4.04234 3.79197 4.12349 3.63548C4.20465 3.47898 4.32223 3.34428 4.46632 3.24273C4.61042 3.14118 4.77681 3.07574 4.95148 3.05194C5.12615 3.02814 5.30399 3.04667 5.47 3.10596L18.793 7.86396ZM13.227 7.99996L6 5.41997V7.99996H13.227ZM22 12C22 12.2652 21.8946 12.5195 21.7071 12.7071C21.5196 12.8946 21.2652 13 21 13H3C2.73478 13 2.48043 12.8946 2.29289 12.7071C2.10536 12.5195 2 12.2652 2 12C2 11.7347 2.10536 11.4804 2.29289 11.2929C2.48043 11.1053 2.73478 11 3 11H21C21.2652 11 21.5196 11.1053 21.7071 11.2929C21.8946 11.4804 22 11.7347 22 12ZM18.423 14C19.657 14 19.955 15.72 18.793 16.136L5.47 20.894C5.30399 20.9533 5.12615 20.9718 4.95148 20.948C4.77681 20.9242 4.61042 20.8588 4.46632 20.7572C4.32223 20.6556 4.20465 20.5209 4.12349 20.3645C4.04234 20.208 3.99998 20.0343 4 19.858V15.1C4 14.8082 4.11589 14.5284 4.32218 14.3221C4.52847 14.1159 4.80826 14 5.1 14H18.423ZM6 18.581L13.227 16H6V18.581Z" fill="#333333"/>
</g>
<defs>
<clipPath id="clip0_6125_19087">
<rect width="24" height="24" fill="white"/>
</clipPath>
</defs>
</svg>
