<svg width="15" height="17" viewBox="0 0 15 17" fill="none" xmlns="http://www.w3.org/2000/svg">
<path fill-rule="evenodd" clip-rule="evenodd" d="M7.46508 0C7.68609 0 7.89805 0.0877973 8.05433 0.244078C8.21061 0.400358 8.29841 0.61232 8.29841 0.833333V15.8333C8.29841 16.0543 8.21061 16.2663 8.05433 16.4226C7.89805 16.5789 7.68609 16.6667 7.46508 16.6667C7.24406 16.6667 7.0321 16.5789 6.87582 16.4226C6.71954 16.2663 6.63175 16.0543 6.63175 15.8333V0.833333C6.63175 0.61232 6.71954 0.400358 6.87582 0.244078C7.0321 0.0877973 7.24406 0 7.46508 0ZM4.01841 2.6725C4.36425 1.70417 5.79841 1.9525 5.79841 2.98083V14.0833C5.79841 14.3264 5.70183 14.5596 5.52993 14.7315C5.35802 14.9034 5.12486 15 4.88175 15H0.916746C0.769841 15 0.625085 14.9647 0.494672 14.8971C0.36426 14.8295 0.252012 14.7315 0.167384 14.6114C0.0827566 14.4913 0.0282286 14.3527 0.00839388 14.2071C-0.0114408 14.0615 0.00399886 13.9133 0.0534123 13.775L4.01841 2.6725ZM4.13175 7.31083L1.98091 13.3333H4.13175V7.31083ZM9.13175 2.98083C9.13175 1.9525 10.5651 1.70417 10.9117 2.6725L14.8767 13.775C14.9262 13.9133 14.9416 14.0615 14.9218 14.2071C14.9019 14.3527 14.8474 14.4913 14.7628 14.6114C14.6781 14.7315 14.5659 14.8295 14.4355 14.8971C14.3051 14.9647 14.1603 15 14.0134 15H10.0484C9.8053 15 9.57214 14.9034 9.40023 14.7315C9.22832 14.5596 9.13175 14.3264 9.13175 14.0833V2.98083ZM12.9484 13.3333L10.7984 7.31083V13.3333H12.9484Z" fill="#111111"/>
</svg>
