<svg width="17" height="15" viewBox="0 0 17 15" fill="none" xmlns="http://www.w3.org/2000/svg">
<path fill-rule="evenodd" clip-rule="evenodd" d="M13.9942 4.01841C14.9625 4.36425 14.7142 5.79841 13.6858 5.79841H2.58333C2.34022 5.79841 2.10706 5.70183 1.93515 5.52993C1.76324 5.35802 1.66667 5.12486 1.66667 4.88175V0.916746C1.66665 0.769841 1.70195 0.625085 1.76958 0.494672C1.83721 0.36426 1.93519 0.252012 2.05527 0.167384C2.17535 0.0827566 2.31401 0.0282286 2.45957 0.00839388C2.60513 -0.0114408 2.75332 0.00399886 2.89167 0.0534123L13.9942 4.01841ZM9.35583 4.13175L3.33333 1.98175V4.13175H9.35583ZM16.6667 7.46508C16.6667 7.68609 16.5789 7.89805 16.4226 8.05433C16.2663 8.21061 16.0543 8.29841 15.8333 8.29841H0.833333C0.61232 8.29841 0.400358 8.21061 0.244078 8.05433C0.0877973 7.89805 0 7.68609 0 7.46508C0 7.24406 0.0877973 7.0321 0.244078 6.87582C0.400358 6.71954 0.61232 6.63175 0.833333 6.63175H15.8333C16.0543 6.63175 16.2663 6.71954 16.4226 6.87582C16.5789 7.0321 16.6667 7.24406 16.6667 7.46508ZM13.6858 9.13175C14.7142 9.13175 14.9625 10.5651 13.9942 10.9117L2.89167 14.8767C2.75332 14.9262 2.60513 14.9416 2.45957 14.9218C2.31401 14.9019 2.17535 14.8474 2.05527 14.7628C1.93519 14.6781 1.83721 14.5659 1.76958 14.4355C1.70195 14.3051 1.66665 14.1603 1.66667 14.0134V10.0484C1.66667 9.8053 1.76324 9.57214 1.93515 9.40023C2.10706 9.22832 2.34022 9.13175 2.58333 9.13175H13.6858ZM3.33333 12.9492L9.35583 10.7984H3.33333V12.9492Z" fill="#111111"/>
</svg>
