<svg width="20" height="20" viewBox="0 0 20 20" fill="none" xmlns="http://www.w3.org/2000/svg">
<path d="M3.33333 12.5C3.55435 12.5 3.76631 12.5878 3.92259 12.7441C4.07887 12.9004 4.16667 13.1123 4.16667 13.3333V15.8333H6.66667C6.88768 15.8333 7.09964 15.9211 7.25592 16.0774C7.4122 16.2337 7.5 16.4457 7.5 16.6667C7.5 16.8877 7.4122 17.0996 7.25592 17.2559C7.09964 17.4122 6.88768 17.5 6.66667 17.5H4.16667C3.72464 17.5 3.30072 17.3244 2.98816 17.0118C2.67559 16.6993 2.5 16.2754 2.5 15.8333V13.3333C2.5 13.1123 2.5878 12.9004 2.74408 12.7441C2.90036 12.5878 3.11232 12.5 3.33333 12.5ZM16.6667 12.5C16.8708 12.5 17.0678 12.575 17.2203 12.7106C17.3728 12.8462 17.4703 13.0331 17.4942 13.2358L17.5 13.3333V15.8333C17.5001 16.2538 17.3413 16.6588 17.0554 16.9671C16.7695 17.2754 16.3776 17.4643 15.9583 17.4958L15.8333 17.5H13.3333C13.1209 17.4998 12.9166 17.4184 12.7622 17.2726C12.6077 17.1268 12.5148 16.9275 12.5024 16.7155C12.4899 16.5035 12.5589 16.2947 12.6952 16.1318C12.8315 15.9689 13.0249 15.8643 13.2358 15.8392L13.3333 15.8333H15.8333V13.3333C15.8333 13.1123 15.9211 12.9004 16.0774 12.7441C16.2337 12.5878 16.4457 12.5 16.6667 12.5ZM15.8333 2.5C16.2538 2.49987 16.6588 2.65867 16.9671 2.94458C17.2754 3.23049 17.4643 3.62237 17.4958 4.04167L17.5 4.16667V6.66667C17.4998 6.87907 17.4184 7.08336 17.2726 7.23781C17.1268 7.39225 16.9275 7.4852 16.7155 7.49764C16.5035 7.51009 16.2947 7.4411 16.1318 7.30478C15.9689 7.16845 15.8643 6.97508 15.8392 6.76417L15.8333 6.66667V4.16667H13.3333C13.1209 4.16643 12.9166 4.0851 12.7622 3.93929C12.6077 3.79349 12.5148 3.59421 12.5024 3.38217C12.4899 3.17014 12.5589 2.96135 12.6952 2.79847C12.8315 2.6356 13.0249 2.53092 13.2358 2.50583L13.3333 2.5H15.8333ZM6.66667 2.5C6.87907 2.50024 7.08336 2.58157 7.23781 2.72737C7.39225 2.87318 7.4852 3.07246 7.49764 3.2845C7.51009 3.49653 7.4411 3.70532 7.30478 3.86819C7.16845 4.03107 6.97508 4.13575 6.76417 4.16083L6.66667 4.16667H4.16667V6.66667C4.16643 6.87907 4.0851 7.08336 3.93929 7.23781C3.79349 7.39225 3.59421 7.4852 3.38217 7.49764C3.17014 7.51009 2.96135 7.4411 2.79847 7.30478C2.6356 7.16845 2.53092 6.97508 2.50583 6.76417L2.5 6.66667V4.16667C2.49987 3.74619 2.65867 3.34119 2.94458 3.03288C3.23049 2.72456 3.62237 2.5357 4.04167 2.50417L4.16667 2.5H6.66667Z" fill="#4F4F4F"/>
</svg>
