<svg width="22" height="21" viewBox="0 0 22 21" fill="none" xmlns="http://www.w3.org/2000/svg">
<path fill-rule="evenodd" clip-rule="evenodd" d="M2.29095 12.7441C2.29099 13.059 2.33747 13.3738 2.44915 13.748L2.48138 13.8545C2.95542 15.2688 4.26094 16.2188 5.72845 16.2188H19.0361L18.2099 18.874C17.9761 19.7768 17.1423 20.3895 16.2294 20.3896C16.0513 20.3895 15.8735 20.3667 15.7011 20.3213L1.5263 16.4834C0.432762 16.1785 -0.21869 15.0336 0.0673171 13.9297L2.29095 6.4248V12.7441ZM19.7079 0C20.9711 5.20408e-05 21.9998 1.04036 21.9999 2.31738V12.5117C21.9999 13.7889 20.9712 14.829 19.7079 14.8291H5.95794C4.69489 14.8291 3.66595 13.7889 3.66595 12.5117V2.31738C3.66604 1.04033 4.69495 0 5.95794 0H19.7079ZM5.95794 1.85449C5.70507 1.85449 5.49903 2.06157 5.49896 2.31738V11.0654L8.02923 8.50879C8.65534 7.87496 9.67574 7.87496 10.3027 8.50879L11.412 9.62695L14.8163 5.49512C15.1206 5.12634 15.5663 4.91388 16.041 4.91113C16.5185 4.92212 16.9633 5.11636 17.2704 5.48047L20.166 8.89648V2.31738C20.1659 2.06162 19.961 1.85454 19.7079 1.85449H5.95794ZM8.24896 2.78027C9.26012 2.78027 10.0829 3.61251 10.0829 4.63477C10.0827 5.65681 9.25997 6.48828 8.24896 6.48828C7.23818 6.48805 6.4162 5.65663 6.41595 4.63477C6.41595 3.61269 7.23798 2.7805 8.24896 2.78027Z" fill="#CFCFCF"/>
</svg>
