<svg width="60" height="60" viewBox="0 0 60 60" fill="none" xmlns="http://www.w3.org/2000/svg">
<g clip-path="url(#clip0_3318_1040)">
<path d="M30 5C43.8075 5 55 16.1925 55 30C55 43.8075 43.8075 55 30 55C16.1925 55 5 43.8075 5 30C5 16.1925 16.1925 5 30 5ZM29.975 25H27.5C26.8628 25.0007 26.2499 25.2447 25.7866 25.6821C25.3232 26.1195 25.0444 26.7174 25.0071 27.3535C24.9697 27.9896 25.1767 28.6159 25.5857 29.1046C25.9946 29.5932 26.5748 29.9072 27.2075 29.9825L27.5 30V42.475C27.5 43.775 28.485 44.85 29.75 44.985L30.025 45H31.25C31.7758 45 32.2882 44.8343 32.7143 44.5263C33.1405 44.2183 33.4587 43.7839 33.6237 43.2846C33.7887 42.7854 33.7922 42.2469 33.6335 41.7456C33.4749 41.2443 33.1622 40.8059 32.74 40.4925L32.5 40.335V27.525C32.5 26.225 31.515 25.15 30.25 25.015L29.975 25ZM30 17.5C29.337 17.5 28.7011 17.7634 28.2322 18.2322C27.7634 18.7011 27.5 19.337 27.5 20C27.5 20.663 27.7634 21.2989 28.2322 21.7678C28.7011 22.2366 29.337 22.5 30 22.5C30.663 22.5 31.2989 22.2366 31.7678 21.7678C32.2366 21.2989 32.5 20.663 32.5 20C32.5 19.337 32.2366 18.7011 31.7678 18.2322C31.2989 17.7634 30.663 17.5 30 17.5Z" fill="#2E91FA"/>
</g>
<defs>
<clipPath id="clip0_3318_1040">
<rect width="60" height="60" fill="white"/>
</clipPath>
</defs>
</svg>
