<svg width="22" height="22" viewBox="0 0 22 22" fill="none" xmlns="http://www.w3.org/2000/svg">
<path d="M21.8526 4.09271C21.7468 3.69667 21.4919 3.44218 21.1108 3.31298C20.3879 3.06803 19.6628 2.82893 18.9385 2.58788C16.4261 1.75157 13.9135 0.916137 11.4016 0.078531C11.1035 -0.0209672 10.8072 -0.0274703 10.5091 0.0679092C10.1729 0.175645 9.83759 0.285765 9.50246 0.397185C7.12513 1.18862 4.74757 1.97919 2.37111 2.773C1.78387 2.96918 1.19794 3.1697 0.615689 3.37975C0.284028 3.49962 0.0863325 3.74848 0.0299718 4.09726C0.00634371 4.24228 0.00135796 4.39185 0.00114119 4.53948C-0.000376215 7.18539 5.73281e-05 9.83131 5.73281e-05 12.4772C5.73281e-05 12.5277 5.73281e-05 12.5785 0.00244182 12.6287C0.0260699 13.0541 0.313292 13.4223 0.728193 13.5604C1.13182 13.6946 1.58444 13.5661 1.85649 13.2433C2.05635 13.0061 2.1164 12.7265 2.11597 12.4267C2.11488 11.7408 2.11228 11.0552 2.11206 10.3693C2.11141 8.88575 2.11185 7.40216 2.11206 5.91858C2.11206 5.88129 2.11618 5.84379 2.11922 5.79372C3.0832 6.11497 4.03136 6.43124 4.99079 6.75098C4.15709 8.27077 3.90303 9.86642 4.2761 11.5512C4.64938 13.2366 5.53727 14.5899 6.94499 15.6182C6.9064 15.6362 6.89036 15.644 6.87389 15.6512C5.21255 16.3821 3.84038 17.474 2.76997 18.942C2.59612 19.1807 2.40796 19.4124 2.33317 19.7072C2.22934 20.1167 2.31865 20.4763 2.64185 20.7562C2.94772 21.0211 3.30062 21.1084 3.68929 20.9621C3.96004 20.86 4.1469 20.6538 4.30688 20.4219C4.70639 19.8431 5.15706 19.3075 5.69964 18.8592C7.67746 17.2239 9.92777 16.5896 12.464 17.0661C14.3688 17.424 15.9254 18.376 17.1478 19.8761C17.3617 20.1388 17.5445 20.428 17.7682 20.6814C18.2373 21.2127 19.1041 21.1147 19.4449 20.4984C19.6732 20.0855 19.609 19.6836 19.3543 19.3047C18.3058 17.7439 16.9351 16.5571 15.23 15.76C15.134 15.7151 15.0377 15.6707 14.9259 15.6189C16.3297 14.5901 17.2139 13.2403 17.5902 11.5585C17.968 9.87033 17.7094 8.27445 16.8868 6.75792C16.9178 6.74643 16.934 6.73971 16.9507 6.73429C17.7296 6.4733 18.5089 6.21295 19.2875 5.95109C19.9023 5.74451 20.5173 5.53771 21.1307 5.32701C21.4422 5.22014 21.6792 5.02309 21.8019 4.71138C21.8387 4.61773 21.8608 4.53145 22 4.57589C21.9467 4.40226 21.8942 4.249 21.8526 4.09271ZM14.2569 13.4278C13.4525 14.2435 12.4716 14.69 11.3264 14.7746C9.9605 14.8756 8.76132 14.47 7.74119 13.5656C7.15482 13.046 6.77938 12.374 6.50191 11.6481C6.30855 11.1417 6.20731 10.6162 6.21057 10.0524C6.20753 9.22673 6.46744 8.45632 6.88256 7.73079C6.93935 7.63194 6.98206 7.488 7.06725 7.4531C7.14659 7.42059 7.2747 7.50426 7.38027 7.53981C8.39086 7.87928 9.40101 8.21917 10.4114 8.55907C10.7615 8.67678 11.1116 8.67873 11.4625 8.56124C12.5416 8.19967 13.6211 7.83982 14.6993 7.47521C14.793 7.44357 14.8413 7.45419 14.8992 7.54133C15.3432 8.20899 15.5953 8.94276 15.6299 9.74113C15.6917 11.1599 15.2634 12.4068 14.2569 13.4278ZM16.9661 4.50002C15.0219 5.14622 13.077 5.79133 11.1332 6.43905C11.0038 6.48218 10.8835 6.48153 10.7539 6.4384C8.6796 5.74776 6.60466 5.05951 4.52972 4.37061C4.49634 4.35955 4.46404 4.3459 4.41093 4.32552C4.46469 4.30601 4.49894 4.29257 4.53362 4.28087C6.62113 3.5859 8.70864 2.88984 10.7979 2.19943C10.8831 2.17124 10.9941 2.17124 11.0793 2.19964C13.1752 2.89309 15.2692 3.59218 17.3635 4.2904C17.3893 4.29908 17.4144 4.30926 17.4649 4.32834C17.2833 4.39099 17.1252 4.44735 16.9661 4.50002Z" fill="#4F4F4F"/>
</svg>
