<svg width="15" height="16" viewBox="0 0 15 16" fill="none" xmlns="http://www.w3.org/2000/svg">
<path d="M8.20875 0.193345L14.1929 3.35668C15.0812 3.82584 15.0812 5.09835 14.1929 5.56668L13.1312 6.12834L14.1929 6.69001C15.0812 7.15918 15.0812 8.43168 14.1929 8.90001L13.1312 9.46168L14.1929 10.0233C15.0812 10.4925 15.0812 11.765 14.1929 12.2333L8.20875 15.3967C7.96866 15.5236 7.70118 15.59 7.42958 15.59C7.15799 15.59 6.89051 15.5236 6.65042 15.3967L0.66625 12.2333C-0.222083 11.7642 -0.222083 10.4925 0.66625 10.0233L1.72875 9.46168L0.66625 8.90001C-0.222083 8.43084 -0.222083 7.15918 0.66625 6.69001L1.72875 6.12834L0.66625 5.56668C-0.222083 5.09751 -0.222083 3.82584 0.66625 3.35668L6.65042 0.193345C6.89051 0.0663737 7.15799 0 7.42958 0C7.70118 0 7.96866 0.0663737 8.20875 0.193345ZM11.3479 10.4042L8.20875 12.0633C7.96866 12.1903 7.70118 12.2567 7.42958 12.2567C7.15799 12.2567 6.89051 12.1903 6.65042 12.0633L3.51125 10.405L2.14208 11.1283L7.42958 13.9233L12.7179 11.1283L11.3479 10.4042ZM11.3479 7.07084L8.20875 8.73085C7.99104 8.84581 7.75056 8.91112 7.5046 8.92207C7.25865 8.93302 7.01332 8.88934 6.78625 8.79418L6.65042 8.73085L3.51125 7.07084L2.14208 7.79585L7.42958 10.5892L12.7179 7.79501L11.3479 7.07084ZM7.42958 1.66668L2.14208 4.46168L7.42958 7.25668L12.7179 4.46168L7.42958 1.66668Z" fill="#4F4F4F"/>
</svg>
