<svg width="20" height="18" viewBox="0 0 20 18" fill="none" xmlns="http://www.w3.org/2000/svg">
<path fill-rule="evenodd" clip-rule="evenodd" d="M18 1.00268e-07C18.5046 -0.000159579 18.9906 0.190406 19.3605 0.533497C19.7305 0.876588 19.9572 1.34684 19.995 1.85L20 2V16C20.0002 16.5046 19.8096 16.9906 19.4665 17.3605C19.1234 17.7305 18.6532 17.9572 18.15 17.995L18 18H2C1.49542 18.0002 1.00943 17.8096 0.639452 17.4665C0.269471 17.1234 0.0428434 16.6532 0.00500021 16.15L1.00268e-07 16V11C-0.000159579 10.4954 0.190406 10.0094 0.533497 9.63945C0.876588 9.26947 1.34684 9.04284 1.85 9.005L2 9H6V7C5.99984 6.49542 6.19041 6.00943 6.5335 5.63945C6.87659 5.26947 7.34685 5.04284 7.85 5.005L8 5H12V2C11.9998 1.49542 12.1904 1.00943 12.5335 0.639452C12.8766 0.269471 13.3468 0.0428434 13.85 0.00500021L14 1.00268e-07H18ZM18 2H14V16H18V2ZM12 7H8V16H12V7ZM6 11H2V16H6V11Z" fill="#4F4F4F"/>
</svg>
