<svg width="14" height="17" viewBox="0 0 14 17" fill="none" xmlns="http://www.w3.org/2000/svg">
<path d="M11.6667 0C12.1087 0 12.5326 0.175595 12.8452 0.488155C13.1577 0.800716 13.3333 1.22464 13.3333 1.66667V12.4917C13.3333 12.6317 13.3017 12.76 13.2392 12.885L12.785 13.7933C12.7271 13.9091 12.6969 14.0368 12.6969 14.1662C12.6969 14.2957 12.7271 14.4234 12.785 14.5392L13.2375 15.4458C13.3042 15.5728 13.337 15.7149 13.3327 15.8582C13.3284 16.0016 13.2872 16.1415 13.213 16.2642C13.1389 16.387 13.0343 16.4885 12.9093 16.5591C12.7844 16.6296 12.6434 16.6666 12.5 16.6667H2.5C1.83696 16.6667 1.20107 16.4033 0.732233 15.9344C0.263392 15.4656 0 14.8297 0 14.1667V2.5C0 1.83696 0.263392 1.20107 0.732233 0.732233C1.20107 0.263392 1.83696 0 2.5 0H11.6667ZM11.1733 13.3333H2.5C2.2876 13.3336 2.08331 13.4149 1.92886 13.5607C1.77441 13.7065 1.68147 13.9058 1.66902 14.1178C1.65658 14.3299 1.72556 14.5386 1.86189 14.7015C1.99821 14.8644 2.19159 14.9691 2.4025 14.9942L2.5 15H11.1733C11.0044 14.5222 10.9846 14.0043 11.1167 13.515L11.1733 13.3333ZM11.6667 1.66667H2.5C2.29589 1.66669 2.09889 1.74163 1.94636 1.87726C1.79383 2.0129 1.69638 2.19979 1.6725 2.4025L1.66667 2.5V11.8083C1.875 11.735 2.09667 11.6883 2.32583 11.6725L2.5 11.6667H11.6667V1.66667ZM8.33333 4.16667C8.54573 4.1669 8.75003 4.24823 8.90447 4.39404C9.05892 4.53985 9.15186 4.73913 9.16431 4.95116C9.17676 5.1632 9.10777 5.37198 8.97145 5.53486C8.83512 5.69774 8.64175 5.80241 8.43083 5.8275L8.33333 5.83333H5C4.7876 5.8331 4.58331 5.75177 4.42886 5.60596C4.27441 5.46015 4.18147 5.26087 4.16902 5.04884C4.15658 4.8368 4.22556 4.62802 4.36189 4.46514C4.49821 4.30226 4.69159 4.19759 4.9025 4.1725L5 4.16667H8.33333Z" fill="#4F4F4F"/>
</svg>
