<svg width="20" height="20" viewBox="0 0 20 20" fill="none" xmlns="http://www.w3.org/2000/svg">
<path fill-rule="evenodd" clip-rule="evenodd" d="M3.11111 0.0301762C3.18349 0.0101506 3.25824 0 3.33333 0H15.8333C16.2936 0 16.6667 0.373096 16.6667 0.833333V10.8333H19.1667C19.6269 10.8333 20 11.2064 20 11.6667V15C20 15.0896 19.9856 15.1786 19.9572 15.2635L19.5406 16.5135C19.4576 16.7624 19.2624 16.9576 19.0135 17.0406L17.7635 17.4572C17.6786 17.4856 17.5896 17.5 17.5 17.5H12.486L12.5 19.1597C12.5025 19.4611 12.342 19.7405 12.0803 19.8901C11.8186 20.0397 11.4964 20.0364 11.2379 19.8812L9.58333 18.8885L7.92875 19.8812C7.67023 20.0364 7.34809 20.0397 7.08637 19.8901C6.82465 19.7405 6.66416 19.4611 6.6667 19.1597L6.68067 17.5H4.16667C3.70643 17.5 3.33333 17.1269 3.33333 16.6667V7.5H0.833333C0.373096 7.5 0 7.1269 0 6.66667V3.33333C0 3.25824 0.0101506 3.18349 0.0301762 3.11111L0.833333 3.33333C0.0301762 3.11111 0.0301411 3.11124 0.0301762 3.11111L0.0309385 3.10837L0.032182 3.10394L0.0361047 3.09016C0.0393538 3.07885 0.0438744 3.06334 0.0496382 3.04406C0.0611528 3.00556 0.0777051 2.9518 0.0990729 2.88642C0.141583 2.75634 0.204297 2.57672 0.285652 2.37767C0.435778 2.01037 0.694989 1.45983 1.07741 1.07741C1.45983 0.694989 2.01037 0.435778 2.37767 0.285652C2.57672 0.204297 2.75634 0.141583 2.88642 0.0990729C2.9518 0.0777051 3.00556 0.0611528 3.04406 0.0496382C3.06334 0.0438744 3.07885 0.0393538 3.09016 0.0361047L3.10394 0.032182L3.10837 0.0309385L3.11111 0.0301762C3.11124 0.0301411 3.11111 0.0301762 3.33333 0.833333L3.11111 0.0301762ZM3.45586 1.66667C3.44015 1.67163 3.42285 1.67717 3.40414 1.68329C3.30212 1.71663 3.16155 1.76577 3.00825 1.82843C2.67086 1.96633 2.38806 2.12378 2.25592 2.25592C2.12378 2.38806 1.96633 2.67086 1.82843 3.00825C1.76577 3.16155 1.71663 3.30212 1.68329 3.40414C1.67717 3.42285 1.67163 3.44015 1.66667 3.45586V5.83333H10.8333V3.33333C10.8333 3.30022 10.8353 3.26713 10.8392 3.23425L11.6667 3.33333C10.8392 3.23425 10.8392 3.2344 10.8392 3.23425L10.8394 3.23299L10.8396 3.23144L10.8401 3.22749L10.8415 3.21627C10.8427 3.20734 10.8443 3.19554 10.8464 3.18112C10.8505 3.15234 10.8565 3.11292 10.8648 3.06499C10.8812 2.96969 10.907 2.83788 10.945 2.68741C11.0137 2.41517 11.138 2.01753 11.3603 1.66667H3.45586ZM13.6411 1.66667C13.5689 1.72994 13.4847 1.80515 13.3963 1.88697C13.1215 2.14121 12.878 2.39359 12.7767 2.54558C12.6923 2.67219 12.6162 2.87651 12.5609 3.09537C12.5354 3.19638 12.518 3.28554 12.5072 3.34834C12.5043 3.36513 12.5019 3.37983 12.5 3.39212V6.66667C12.5 7.1269 12.1269 7.5 11.6667 7.5H5V15.8333H6.6947L6.70602 14.4883C6.16188 13.8377 5.83333 12.9983 5.83333 12.0833C5.83333 10.0123 7.51227 8.33333 9.58333 8.33333C11.6544 8.33333 13.3333 10.0123 13.3333 12.0833C13.3333 12.9983 13.0048 13.8377 12.4606 14.4883L12.472 15.8333H15V1.66667H13.6411ZM16.6667 15.8333H17.3648L18.0912 15.5912L18.3333 14.8648V12.5H16.6667V15.8333ZM10.8035 15.6301C10.4209 15.7618 10.0103 15.8333 9.58333 15.8333C9.15633 15.8333 8.74575 15.7618 8.36313 15.6301L8.34582 17.6874L9.15459 17.2021C9.41849 17.0437 9.74818 17.0437 10.0121 17.2021L10.8209 17.6874L10.8035 15.6301ZM12.4938 3.43477C12.4938 3.4348 12.4938 3.43479 12.4938 3.43477ZM9.58333 10C8.43274 10 7.5 10.9327 7.5 12.0833C7.5 12.6665 7.73847 13.1924 8.12534 13.5715C8.50195 13.9405 9.0154 14.1667 9.58333 14.1667C10.1513 14.1667 10.6647 13.9405 11.0413 13.5715C11.4282 13.1924 11.6667 12.6665 11.6667 12.0833C11.6667 10.9327 10.7339 10 9.58333 10Z" fill="#FFB608"/>
</svg>
