<svg width="17" height="17" viewBox="0 0 17 17" fill="none" xmlns="http://www.w3.org/2000/svg">
<path fill-rule="evenodd" clip-rule="evenodd" d="M1.66667 8.33333C1.66642 7.17303 1.96902 6.03276 2.54453 5.02525C3.12004 4.01774 3.94855 3.17788 4.94813 2.5887C5.94771 1.99952 7.08376 1.68143 8.24395 1.66587C9.40415 1.65032 10.5483 1.93783 11.5633 2.5H8.33333C8.11232 2.5 7.90036 2.5878 7.74408 2.74408C7.5878 2.90036 7.5 3.11232 7.5 3.33333C7.5 3.55435 7.5878 3.76631 7.74408 3.92259C7.90036 4.07887 8.11232 4.16667 8.33333 4.16667H13.3333C13.3975 4.16667 13.4608 4.15917 13.5208 4.14583C13.7375 4.41417 13.9342 4.69917 14.1083 5H8.33333C8.11232 5 7.90036 5.0878 7.74408 5.24408C7.5878 5.40036 7.5 5.61232 7.5 5.83333C7.5 6.05435 7.5878 6.26631 7.74408 6.42259C7.90036 6.57887 8.11232 6.66667 8.33333 6.66667H14.79C14.86 6.93833 14.9133 7.21667 14.9483 7.5H8.33333C8.11232 7.5 7.90036 7.5878 7.74408 7.74408C7.5878 7.90036 7.5 8.11232 7.5 8.33333C7.5 8.55435 7.5878 8.76631 7.74408 8.92259C7.90036 9.07887 8.11232 9.16667 8.33333 9.16667H14.9483C14.9136 9.44757 14.8607 9.72592 14.79 10H8.33333C8.11232 10 7.90036 10.0878 7.74408 10.2441C7.5878 10.4004 7.5 10.6123 7.5 10.8333C7.5 11.0543 7.5878 11.2663 7.74408 11.4226C7.90036 11.5789 8.11232 11.6667 8.33333 11.6667H14.1083C13.9349 11.9662 13.7385 12.2518 13.5208 12.5208C13.4593 12.5068 13.3964 12.4999 13.3333 12.5H8.33333C8.11232 12.5 7.90036 12.5878 7.74408 12.7441C7.5878 12.9004 7.5 13.1123 7.5 13.3333C7.5 13.5543 7.5878 13.7663 7.74408 13.9226C7.90036 14.0789 8.11232 14.1667 8.33333 14.1667H11.5633C10.5483 14.7288 9.40415 15.0163 8.24395 15.0008C7.08376 14.9852 5.94771 14.6671 4.94813 14.078C3.94855 13.4888 3.12004 12.6489 2.54453 11.6414C1.96902 10.6339 1.66642 9.49363 1.66667 8.33333ZM16.6667 8.33333C16.6667 3.73083 12.9358 0 8.33333 0C3.73083 0 0 3.73083 0 8.33333C0 12.9358 3.73083 16.6667 8.33333 16.6667C12.9358 16.6667 16.6667 12.9358 16.6667 8.33333Z" fill="#111111"/>
</svg>
