<svg width="52" height="52" viewBox="0 0 52 52" fill="none" xmlns="http://www.w3.org/2000/svg">
<path d="M26 1C39.8071 1 51 12.1929 51 26C51 39.8071 39.8071 51 26 51C12.1929 51 1 39.8071 1 26C1 12.1929 12.1929 1 26 1Z" stroke="#7067ED" stroke-width="2"/>
<g clip-path="url(#clip0_7092_15716)">
<path d="M25.1667 32.6667C25.1667 32.8877 25.2545 33.0996 25.4107 33.2559C25.567 33.4122 25.779 33.5 26 33.5C26.221 33.5 26.433 33.4122 26.5893 33.2559C26.7455 33.0996 26.8333 32.8877 26.8333 32.6667V26.8333H32.6667C32.8877 26.8333 33.0996 26.7455 33.2559 26.5893C33.4122 26.433 33.5 26.221 33.5 26C33.5 25.779 33.4122 25.567 33.2559 25.4107C33.0996 25.2545 32.8877 25.1667 32.6667 25.1667H26.8333V19.3333C26.8333 19.1123 26.7455 18.9004 26.5893 18.7441C26.433 18.5878 26.221 18.5 26 18.5C25.779 18.5 25.567 18.5878 25.4107 18.7441C25.2545 18.9004 25.1667 19.1123 25.1667 19.3333V25.1667H19.3333C19.1123 25.1667 18.9004 25.2545 18.7441 25.4107C18.5878 25.567 18.5 25.779 18.5 26C18.5 26.221 18.5878 26.433 18.7441 26.5893C18.9004 26.7455 19.1123 26.8333 19.3333 26.8333H25.1667V32.6667Z" fill="#7067ED"/>
</g>
<defs>
<clipPath id="clip0_7092_15716">
<rect width="20" height="20" fill="white" transform="translate(16 16)"/>
</clipPath>
</defs>
</svg>