<svg width="15" height="15" viewBox="0 0 15 15" fill="none" xmlns="http://www.w3.org/2000/svg">
<path fill-rule="evenodd" clip-rule="evenodd" d="M10.8333 0C11.0543 0 11.2663 0.0877973 11.4226 0.244078C11.5789 0.400358 11.6667 0.61232 11.6667 0.833333V1.66667H13.3333C13.7754 1.66667 14.1993 1.84226 14.5118 2.15482C14.8244 2.46738 15 2.89131 15 3.33333V13.3333C15 13.7754 14.8244 14.1993 14.5118 14.5118C14.1993 14.8244 13.7754 15 13.3333 15H1.66667C1.22464 15 0.800716 14.8244 0.488155 14.5118C0.175595 14.1993 0 13.7754 0 13.3333V3.33333C0 2.89131 0.175595 2.46738 0.488155 2.15482C0.800716 1.84226 1.22464 1.66667 1.66667 1.66667H3.33333V0.833333C3.33333 0.61232 3.42113 0.400358 3.57741 0.244078C3.73369 0.0877973 3.94565 0 4.16667 0C4.38768 0 4.59964 0.0877973 4.75592 0.244078C4.9122 0.400358 5 0.61232 5 0.833333V1.66667H10V0.833333C10 0.61232 10.0878 0.400358 10.2441 0.244078C10.4004 0.0877973 10.6123 0 10.8333 0ZM4.16667 3.33333H1.66667V5H13.3333V3.33333H10.8333H4.16667ZM1.66667 6.66667V13.3333H13.3333V6.66667H1.66667ZM3.33333 8.33333C3.33333 8.11232 3.42113 7.90036 3.57741 7.74408C3.73369 7.5878 3.94565 7.5 4.16667 7.5H4.175C4.39601 7.5 4.60798 7.5878 4.76426 7.74408C4.92054 7.90036 5.00833 8.11232 5.00833 8.33333C5.00833 8.55435 4.92054 8.76631 4.76426 8.92259C4.60798 9.07887 4.39601 9.16667 4.175 9.16667H4.16667C3.94565 9.16667 3.73369 9.07887 3.57741 8.92259C3.42113 8.76631 3.33333 8.55435 3.33333 8.33333ZM4.16667 10C3.94565 10 3.73369 10.0878 3.57741 10.2441C3.42113 10.4004 3.33333 10.6123 3.33333 10.8333C3.33333 11.0543 3.42113 11.2663 3.57741 11.4226C3.73369 11.5789 3.94565 11.6667 4.16667 11.6667H4.175C4.39601 11.6667 4.60798 11.5789 4.76426 11.4226C4.92054 11.2663 5.00833 11.0543 5.00833 10.8333C5.00833 10.6123 4.92054 10.4004 4.76426 10.2441C4.60798 10.0878 4.39601 10 4.175 10H4.16667ZM6.66667 8.33333C6.66667 8.11232 6.75446 7.90036 6.91074 7.74408C7.06702 7.5878 7.27899 7.5 7.5 7.5H7.50833C7.72935 7.5 7.94131 7.5878 8.09759 7.74408C8.25387 7.90036 8.34167 8.11232 8.34167 8.33333C8.34167 8.55435 8.25387 8.76631 8.09759 8.92259C7.94131 9.07887 7.72935 9.16667 7.50833 9.16667H7.5C7.27899 9.16667 7.06702 9.07887 6.91074 8.92259C6.75446 8.76631 6.66667 8.55435 6.66667 8.33333ZM7.5 10C7.27899 10 7.06702 10.0878 6.91074 10.2441C6.75446 10.4004 6.66667 10.6123 6.66667 10.8333C6.66667 11.0543 6.75446 11.2663 6.91074 11.4226C7.06702 11.5789 7.27899 11.6667 7.5 11.6667H7.50833C7.72935 11.6667 7.94131 11.5789 8.09759 11.4226C8.25387 11.2663 8.34167 11.0543 8.34167 10.8333C8.34167 10.6123 8.25387 10.4004 8.09759 10.2441C7.94131 10.0878 7.72935 10 7.50833 10H7.5ZM10 8.33333C10 8.11232 10.0878 7.90036 10.2441 7.74408C10.4004 7.5878 10.6123 7.5 10.8333 7.5H10.8417C11.0627 7.5 11.2746 7.5878 11.4309 7.74408C11.5872 7.90036 11.675 8.11232 11.675 8.33333C11.675 8.55435 11.5872 8.76631 11.4309 8.92259C11.2746 9.07887 11.0627 9.16667 10.8417 9.16667H10.8333C10.6123 9.16667 10.4004 9.07887 10.2441 8.92259C10.0878 8.76631 10 8.55435 10 8.33333ZM10.8333 10C10.6123 10 10.4004 10.0878 10.2441 10.2441C10.0878 10.4004 10 10.6123 10 10.8333C10 11.0543 10.0878 11.2663 10.2441 11.4226C10.4004 11.5789 10.6123 11.6667 10.8333 11.6667H10.8417C11.0627 11.6667 11.2746 11.5789 11.4309 11.4226C11.5872 11.2663 11.675 11.0543 11.675 10.8333C11.675 10.6123 11.5872 10.4004 11.4309 10.2441C11.2746 10.0878 11.0627 10 10.8417 10H10.8333Z" fill="#7067ED"/>
</svg>
