<svg width="18" height="18" viewBox="0 0 18 18" fill="none" xmlns="http://www.w3.org/2000/svg">
<path d="M8 1.00268e-07C8.50458 -0.000159579 8.99057 0.190406 9.36055 0.533497C9.73053 0.876588 9.95716 1.34684 9.995 1.85L10 2V8C10.0002 8.50458 9.80959 8.99057 9.4665 9.36055C9.12341 9.73053 8.65316 9.95716 8.15 9.995L8 10H2C1.49542 10.0002 1.00943 9.80959 0.639452 9.4665C0.269471 9.12341 0.0428434 8.65316 0.00500021 8.15L1.00268e-07 8V2C-0.000159579 1.49542 0.190406 1.00943 0.533497 0.639452C0.876588 0.269471 1.34684 0.0428434 1.85 0.00500021L2 1.00268e-07H8ZM8 2H2V8H8V2ZM5.5 4C5.61703 3.99996 5.73036 4.04097 5.82026 4.11589C5.91016 4.19081 5.97093 4.29489 5.992 4.41L6 4.5V5.5C6.00004 5.61703 5.95903 5.73036 5.88411 5.82026C5.80919 5.91016 5.70511 5.97093 5.59 5.992L5.5 6H4.5C4.38297 6.00004 4.26964 5.95903 4.17974 5.88411C4.08984 5.80919 4.02906 5.70511 4.008 5.59L4 5.5V4.5C3.99996 4.38297 4.04097 4.26964 4.11589 4.17974C4.19081 4.08984 4.29489 4.02906 4.41 4.008L4.5 4H5.5ZM18 2C18 1.46957 17.7893 0.960859 17.4142 0.585786C17.0391 0.210714 16.5304 1.00268e-07 16 1.00268e-07H14C13.4696 1.00268e-07 12.9609 0.210714 12.5858 0.585786C12.2107 0.960859 12 1.46957 12 2V4C12 4.53043 12.2107 5.03914 12.5858 5.41421C12.9609 5.78929 13.4696 6 14 6H16C16.5304 6 17.0391 5.78929 17.4142 5.41421C17.7893 5.03914 18 4.53043 18 4V2ZM14 2H16V4H14V2ZM4 12C4.53043 12 5.03914 12.2107 5.41421 12.5858C5.78929 12.9609 6 13.4696 6 14V16C6 16.5304 5.78929 17.0391 5.41421 17.4142C5.03914 17.7893 4.53043 18 4 18H2C1.46957 18 0.960859 17.7893 0.585786 17.4142C0.210714 17.0391 1.00268e-07 16.5304 1.00268e-07 16V14C1.00268e-07 13.4696 0.210714 12.9609 0.585786 12.5858C0.960859 12.2107 1.46957 12 2 12H4ZM4 14H2V16H4V14ZM18 14C18 13.4696 17.7893 12.9609 17.4142 12.5858C17.0391 12.2107 16.5304 12 16 12H14C13.4696 12 12.9609 12.2107 12.5858 12.5858C12.2107 12.9609 12 13.4696 12 14V16C12 16.5304 12.2107 17.0391 12.5858 17.4142C12.9609 17.7893 13.4696 18 14 18H16C16.5304 18 17.0391 17.7893 17.4142 17.4142C17.7893 17.0391 18 16.5304 18 16V14ZM14 14H16V16H14V14ZM12 9C12 8.73478 12.1054 8.48043 12.2929 8.29289C12.4804 8.10536 12.7348 8 13 8H17C17.2652 8 17.5196 8.10536 17.7071 8.29289C17.8946 8.48043 18 8.73478 18 9C18 9.26522 17.8946 9.51957 17.7071 9.70711C17.5196 9.89464 17.2652 10 17 10H13C12.7348 10 12.4804 9.89464 12.2929 9.70711C12.1054 9.51957 12 9.26522 12 9ZM10 13C10 12.7348 9.89464 12.4804 9.70711 12.2929C9.51957 12.1054 9.26522 12 9 12C8.73478 12 8.48043 12.1054 8.29289 12.2929C8.10536 12.4804 8 12.7348 8 13V17C8 17.2652 8.10536 17.5196 8.29289 17.7071C8.48043 17.8946 8.73478 18 9 18C9.26522 18 9.51957 17.8946 9.70711 17.7071C9.89464 17.5196 10 17.2652 10 17V13Z" fill="#4F4F4F"/>
</svg>
