<svg width="15" height="15" viewBox="0 0 15 15" fill="none" xmlns="http://www.w3.org/2000/svg">
<path fill-rule="evenodd" clip-rule="evenodd" d="M0.833333 1.66667C1.05435 1.66667 1.26631 1.57887 1.42259 1.42259C1.57887 1.26631 1.66667 1.05435 1.66667 0.833333C1.66667 0.61232 1.57887 0.400358 1.42259 0.244078C1.26631 0.0877973 1.05435 0 0.833333 0C0.61232 0 0.400358 0.0877973 0.244078 0.244078C0.0877973 0.400358 0 0.61232 0 0.833333C0 1.05435 0.0877973 1.26631 0.244078 1.42259C0.400358 1.57887 0.61232 1.66667 0.833333 1.66667ZM4.16667 1.66667C4.38768 1.66667 4.59964 1.57887 4.75592 1.42259C4.9122 1.26631 5 1.05435 5 0.833333C5 0.61232 4.9122 0.400358 4.75592 0.244078C4.59964 0.0877973 4.38768 0 4.16667 0C3.94565 0 3.73369 0.0877973 3.57741 0.244078C3.42113 0.400358 3.33333 0.61232 3.33333 0.833333C3.33333 1.05435 3.42113 1.26631 3.57741 1.42259C3.73369 1.57887 3.94565 1.66667 4.16667 1.66667ZM1.66667 14.1667C1.66667 14.3877 1.57887 14.5996 1.42259 14.7559C1.26631 14.9122 1.05435 15 0.833333 15C0.61232 15 0.400358 14.9122 0.244078 14.7559C0.0877973 14.5996 0 14.3877 0 14.1667C0 13.9457 0.0877973 13.7337 0.244078 13.5774C0.400358 13.4211 0.61232 13.3333 0.833333 13.3333C1.05435 13.3333 1.26631 13.4211 1.42259 13.5774C1.57887 13.7337 1.66667 13.9457 1.66667 14.1667ZM5 14.1667C5 14.3877 4.9122 14.5996 4.75592 14.7559C4.59964 14.9122 4.38768 15 4.16667 15C3.94565 15 3.73369 14.9122 3.57741 14.7559C3.42113 14.5996 3.33333 14.3877 3.33333 14.1667C3.33333 13.9457 3.42113 13.7337 3.57741 13.5774C3.73369 13.4211 3.94565 13.3333 4.16667 13.3333C4.38768 13.3333 4.59964 13.4211 4.75592 13.5774C4.9122 13.7337 5 13.9457 5 14.1667ZM7.5 15C7.72101 15 7.93297 14.9122 8.08926 14.7559C8.24554 14.5996 8.33333 14.3877 8.33333 14.1667C8.33333 13.9457 8.24554 13.7337 8.08926 13.5774C7.93297 13.4211 7.72101 13.3333 7.5 13.3333C7.27899 13.3333 7.06702 13.4211 6.91074 13.5774C6.75446 13.7337 6.66667 13.9457 6.66667 14.1667C6.66667 14.3877 6.75446 14.5996 6.91074 14.7559C7.06702 14.9122 7.27899 15 7.5 15ZM11.6667 14.1667C11.6667 14.3877 11.5789 14.5996 11.4226 14.7559C11.2663 14.9122 11.0543 15 10.8333 15C10.6123 15 10.4004 14.9122 10.2441 14.7559C10.0878 14.5996 10 14.3877 10 14.1667C10 13.9457 10.0878 13.7337 10.2441 13.5774C10.4004 13.4211 10.6123 13.3333 10.8333 13.3333C11.0543 13.3333 11.2663 13.4211 11.4226 13.5774C11.5789 13.7337 11.6667 13.9457 11.6667 14.1667ZM14.1667 15C14.3877 15 14.5996 14.9122 14.7559 14.7559C14.9122 14.5996 15 14.3877 15 14.1667C15 13.9457 14.9122 13.7337 14.7559 13.5774C14.5996 13.4211 14.3877 13.3333 14.1667 13.3333C13.9457 13.3333 13.7337 13.4211 13.5774 13.5774C13.4211 13.7337 13.3333 13.9457 13.3333 14.1667C13.3333 14.3877 13.4211 14.5996 13.5774 14.7559C13.7337 14.9122 13.9457 15 14.1667 15ZM1.66667 10.8333C1.66667 10.6123 1.57887 10.4004 1.42259 10.2441C1.26631 10.0878 1.05435 10 0.833333 10C0.61232 10 0.400358 10.0878 0.244078 10.2441C0.0877973 10.4004 0 10.6123 0 10.8333C0 11.0543 0.0877973 11.2663 0.244078 11.4226C0.400358 11.5789 0.61232 11.6667 0.833333 11.6667C1.05435 11.6667 1.26631 11.5789 1.42259 11.4226C1.57887 11.2663 1.66667 11.0543 1.66667 10.8333ZM1.66667 7.5C1.66667 7.27899 1.57887 7.06702 1.42259 6.91074C1.26631 6.75446 1.05435 6.66667 0.833333 6.66667C0.61232 6.66667 0.400358 6.75446 0.244078 6.91074C0.0877973 7.06702 0 7.27899 0 7.5C0 7.72101 0.0877973 7.93297 0.244078 8.08926C0.400358 8.24554 0.61232 8.33333 0.833333 8.33333C1.05435 8.33333 1.26631 8.24554 1.42259 8.08926C1.57887 7.93297 1.66667 7.72101 1.66667 7.5ZM0.833333 3.33333C1.05435 3.33333 1.26631 3.42113 1.42259 3.57741C1.57887 3.73369 1.66667 3.94565 1.66667 4.16667C1.66667 4.38768 1.57887 4.59964 1.42259 4.75592C1.26631 4.9122 1.05435 5 0.833333 5C0.61232 5 0.400358 4.9122 0.244078 4.75592C0.0877973 4.59964 0 4.38768 0 4.16667C0 3.94565 0.0877973 3.73369 0.244078 3.57741C0.400358 3.42113 0.61232 3.33333 0.833333 3.33333ZM14.1667 10C14.3877 10 14.5996 10.0878 14.7559 10.2441C14.9122 10.4004 15 10.6123 15 10.8333C15 11.0543 14.9122 11.2663 14.7559 11.4226C14.5996 11.5789 14.3877 11.6667 14.1667 11.6667C13.9457 11.6667 13.7337 11.5789 13.5774 11.4226C13.4211 11.2663 13.3333 11.0543 13.3333 10.8333C13.3333 10.6123 13.4211 10.4004 13.5774 10.2441C13.7337 10.0878 13.9457 10 14.1667 10ZM7.5 0C7.27899 0 7.06702 0.0877973 6.91074 0.244078C6.75446 0.400358 6.66667 0.61232 6.66667 0.833333C6.66667 1.05435 6.75446 1.26631 6.91074 1.42259C7.06702 1.57887 7.27899 1.66667 7.5 1.66667H9.16667C10.2717 1.66667 11.3315 2.10565 12.1129 2.88706C12.8943 3.66846 13.3333 4.72826 13.3333 5.83333V7.5C13.3333 7.72101 13.4211 7.93297 13.5774 8.08926C13.7337 8.24554 13.9457 8.33333 14.1667 8.33333C14.3877 8.33333 14.5996 8.24554 14.7559 8.08926C14.9122 7.93297 15 7.72101 15 7.5V5.83333C15 4.28624 14.3854 2.80251 13.2915 1.70854C12.1975 0.614581 10.7138 0 9.16667 0H7.5Z" fill="#111111"/>
</svg>
