<svg width="24" height="24" viewBox="0 0 24 24" fill="none" xmlns="http://www.w3.org/2000/svg">
<path d="M20.7129 23H3.28713C2.05281 23 1 21.9835 1 20.7129V3.28713C1 2.05281 2.0165 1 3.28713 1H20.7129C21.9472 1 23 2.0165 23 3.28713V20.7129C23 21.9472 21.9472 23 20.7129 23ZM3.28713 3C2.92409 3 3 2.92409 3 3.28713V20.7129C3 21.0759 2.9604 21 3.32343 21H20.7492C21.1122 21 21 21.0759 21 20.7129V3.28713C21 2.92409 21.1122 3 20.7492 3H3.28713Z" fill="#333333"/>
<path d="M16.6031 8.21384L11.3217 14.432L8.38362 11.5047C8.05917 11.1775 7.55447 11.2138 7.23002 11.5047C6.90557 11.832 6.94162 12.3411 7.23002 12.6684L10.5286 15.9229C10.7449 16.1411 11.0333 16.2502 11.3217 16.2502C11.6101 16.2502 11.8985 16.1411 12.1148 15.9229L17.7567 9.41384C18.0811 9.08656 18.0811 8.57747 17.7567 8.2502C17.4322 7.92293 16.9275 7.92293 16.6031 8.21384Z" fill="#333333"/>
</svg>
