<svg width="15" height="16" viewBox="0 0 15 16" fill="none" xmlns="http://www.w3.org/2000/svg">
<path d="M11.2499 8.33333C12.2292 8.33335 13.1696 8.71641 13.8701 9.40065C14.5707 10.0849 14.9758 11.016 14.9988 11.995C15.0219 12.974 14.6611 13.9231 13.9936 14.6396C13.3261 15.3561 12.4048 15.783 11.4266 15.8292L11.2499 15.8333H3.74994C2.77069 15.8333 1.83029 15.4503 1.12975 14.766C0.429215 14.0818 0.0241155 13.1507 0.00104228 12.1717C-0.0220309 11.1927 0.338753 10.2435 1.00628 9.52707C1.67381 8.81059 2.59511 8.38365 3.57327 8.3375L3.74994 8.33333H11.2499ZM11.2499 10H3.74994C3.20837 9.99868 2.68757 10.2083 2.29793 10.5845C1.90829 10.9606 1.68043 11.4737 1.66266 12.015C1.64489 12.5562 1.8386 13.0832 2.20272 13.4841C2.56685 13.885 3.07278 14.1283 3.61327 14.1625L3.74994 14.1667H11.2499C11.7915 14.168 12.3123 13.9584 12.702 13.5822C13.0916 13.2061 13.3194 12.693 13.3372 12.1517C13.355 11.6104 13.1613 11.0835 12.7972 10.6826C12.433 10.2817 11.9271 10.0384 11.3866 10.0042L11.2499 10ZM3.74994 10.8333C4.08146 10.8333 4.3994 10.965 4.63382 11.1994C4.86824 11.4339 4.99994 11.7518 4.99994 12.0833C4.99994 12.4149 4.86824 12.7328 4.63382 12.9672C4.3994 13.2016 4.08146 13.3333 3.74994 13.3333C3.41842 13.3333 3.10048 13.2016 2.86606 12.9672C2.63164 12.7328 2.49994 12.4149 2.49994 12.0833C2.49994 11.7518 2.63164 11.4339 2.86606 11.1994C3.10048 10.965 3.41842 10.8333 3.74994 10.8333ZM11.2499 0C12.2292 1.59048e-05 13.1696 0.38308 13.8701 1.06731C14.5707 1.75155 14.9758 2.68266 14.9988 3.66164C15.0219 4.64062 14.6611 5.58979 13.9936 6.30627C13.3261 7.02274 12.4048 7.44968 11.4266 7.49583L11.2499 7.5H3.74994C2.77069 7.49998 1.83029 7.11692 1.12975 6.43269C0.429215 5.74845 0.0241155 4.81734 0.00104228 3.83836C-0.0220309 2.85938 0.338753 1.91021 1.00628 1.19373C1.67381 0.477258 2.59511 0.0503162 3.57327 0.00416676L3.74994 0H11.2499ZM11.2499 1.66667H3.74994C3.20837 1.66535 2.68757 1.87498 2.29793 2.25112C1.90829 2.62726 1.68043 3.14035 1.66266 3.68163C1.64489 4.22291 1.8386 4.74984 2.20272 5.15073C2.56685 5.55162 3.07278 5.79496 3.61327 5.82917L3.74994 5.83333H11.2499C11.7915 5.83465 12.3123 5.62502 12.702 5.24888C13.0916 4.87274 13.3194 4.35965 13.3372 3.81837C13.355 3.27709 13.1613 2.75016 12.7972 2.34927C12.433 1.94838 11.9271 1.70504 11.3866 1.67083L11.2499 1.66667ZM11.2499 2.5C11.5815 2.5 11.8994 2.6317 12.1338 2.86612C12.3682 3.10054 12.4999 3.41848 12.4999 3.75C12.4999 4.08152 12.3682 4.39946 12.1338 4.63388C11.8994 4.8683 11.5815 5 11.2499 5C10.9184 5 10.6005 4.8683 10.3661 4.63388C10.1316 4.39946 9.99994 4.08152 9.99994 3.75C9.99994 3.41848 10.1316 3.10054 10.3661 2.86612C10.6005 2.6317 10.9184 2.5 11.2499 2.5Z" fill="#7067ED"/>
</svg>
