<svg width="15" height="15" viewBox="0 0 15 15" fill="none" xmlns="http://www.w3.org/2000/svg">
<path fill-rule="evenodd" clip-rule="evenodd" d="M1.66667 0C1.22464 0 0.800716 0.175595 0.488155 0.488155C0.175595 0.800716 0 1.22464 0 1.66667V13.3333C0 13.7754 0.175595 14.1993 0.488155 14.5118C0.800716 14.8244 1.22464 15 1.66667 15H13.3333C13.7754 15 14.1993 14.8244 14.5118 14.5118C14.8244 14.1993 15 13.7754 15 13.3333V1.66667C15 1.22464 14.8244 0.800716 14.5118 0.488155C14.1993 0.175595 13.7754 0 13.3333 0H1.66667ZM1.66667 1.66667H13.3333V13.3333H1.66667V1.66667ZM7.5 3.33333C7.72101 3.33333 7.93297 3.42113 8.08926 3.57741C8.24554 3.73369 8.33333 3.94565 8.33333 4.16667C8.33333 4.38768 8.24554 4.59964 8.08926 4.75592C7.93297 4.9122 7.72101 5 7.5 5C7.27899 5 7.06702 4.9122 6.91074 4.75592C6.75446 4.59964 6.66667 4.38768 6.66667 4.16667C6.66667 3.94565 6.75446 3.73369 6.91074 3.57741C7.06702 3.42113 7.27899 3.33333 7.5 3.33333ZM8.33333 7.5C8.33333 7.27899 8.24554 7.06702 8.08926 6.91074C7.93297 6.75446 7.72101 6.66667 7.5 6.66667C7.27899 6.66667 7.06702 6.75446 6.91074 6.91074C6.75446 7.06702 6.66667 7.27899 6.66667 7.5C6.66667 7.72101 6.75446 7.93297 6.91074 8.08926C7.06702 8.24554 7.27899 8.33333 7.5 8.33333C7.72101 8.33333 7.93297 8.24554 8.08926 8.08926C8.24554 7.93297 8.33333 7.72101 8.33333 7.5ZM8.33333 10.8333C8.33333 10.6123 8.24554 10.4004 8.08926 10.2441C7.93297 10.0878 7.72101 10 7.5 10C7.27899 10 7.06702 10.0878 6.91074 10.2441C6.75446 10.4004 6.66667 10.6123 6.66667 10.8333C6.66667 11.0543 6.75446 11.2663 6.91074 11.4226C7.06702 11.5789 7.27899 11.6667 7.5 11.6667C7.72101 11.6667 7.93297 11.5789 8.08926 11.4226C8.24554 11.2663 8.33333 11.0543 8.33333 10.8333ZM4.16667 8.33333C4.38768 8.33333 4.59964 8.24554 4.75592 8.08926C4.9122 7.93297 5 7.72101 5 7.5C5 7.27899 4.9122 7.06702 4.75592 6.91074C4.59964 6.75446 4.38768 6.66667 4.16667 6.66667C3.94565 6.66667 3.73369 6.75446 3.57741 6.91074C3.42113 7.06702 3.33333 7.27899 3.33333 7.5C3.33333 7.72101 3.42113 7.93297 3.57741 8.08926C3.73369 8.24554 3.94565 8.33333 4.16667 8.33333ZM11.6667 7.5C11.6667 7.72101 11.5789 7.93297 11.4226 8.08926C11.2663 8.24554 11.0543 8.33333 10.8333 8.33333C10.6123 8.33333 10.4004 8.24554 10.2441 8.08926C10.0878 7.93297 10 7.72101 10 7.5C10 7.27899 10.0878 7.06702 10.2441 6.91074C10.4004 6.75446 10.6123 6.66667 10.8333 6.66667C11.0543 6.66667 11.2663 6.75446 11.4226 6.91074C11.5789 7.06702 11.6667 7.27899 11.6667 7.5Z" fill="#111111"/>
</svg>
