<svg width="60" height="60" viewBox="0 0 60 60" fill="none" xmlns="http://www.w3.org/2000/svg">
<g clip-path="url(#clip0_3318_1025)">
<path d="M30 5C43.8075 5 55 16.1925 55 30C55 43.8075 43.8075 55 30 55C16.1925 55 5 43.8075 5 30C5 16.1925 16.1925 5 30 5ZM38.8375 20.9525L26.4625 33.3275L21.1625 28.025C20.9304 27.7927 20.6548 27.6084 20.3515 27.4827C20.0481 27.3569 19.723 27.2921 19.3946 27.292C18.7315 27.2918 18.0954 27.555 17.6262 28.0238C17.1571 28.4925 16.8935 29.1284 16.8932 29.7916C16.893 30.4548 17.1562 31.0909 17.625 31.56L24.52 38.455C24.7754 38.7105 25.0786 38.9132 25.4123 39.0515C25.7461 39.1897 26.1038 39.2609 26.465 39.2609C26.8262 39.2609 27.1839 39.1897 27.5177 39.0515C27.8514 38.9132 28.1546 38.7105 28.41 38.455L42.375 24.49C42.8441 24.0209 43.1076 23.3847 43.1076 22.7213C43.1076 22.0578 42.8441 21.4216 42.375 20.9525C41.9059 20.4834 41.2697 20.2199 40.6063 20.2199C39.9428 20.2199 39.3066 20.4834 38.8375 20.9525Z" fill="#28A746"/>
</g>
<defs>
<clipPath id="clip0_3318_1025">
<rect width="60" height="60" fill="white"/>
</clipPath>
</defs>
</svg>
