<svg width="14" height="17" viewBox="0 0 14 17" fill="none" xmlns="http://www.w3.org/2000/svg">
<path d="M7.98833 0C8.43032 9.43957e-05 8.85418 0.175751 9.16667 0.488333L12.845 4.16667C13.1576 4.47915 13.3332 4.90301 13.3333 5.345V15C13.3333 15.442 13.1577 15.8659 12.8452 16.1785C12.5326 16.4911 12.1087 16.6667 11.6667 16.6667H1.66667C1.22464 16.6667 0.800716 16.4911 0.488155 16.1785C0.175595 15.8659 0 15.442 0 15V1.66667C0 1.22464 0.175595 0.800716 0.488155 0.488155C0.800716 0.175595 1.22464 0 1.66667 0H7.98833ZM6.66667 1.66667H1.66667V15H11.6667V6.66667H7.91667C7.58515 6.66667 7.2672 6.53497 7.03278 6.30055C6.79836 6.06613 6.66667 5.74819 6.66667 5.41667V1.66667ZM9.16667 10C9.38768 10 9.59964 10.0878 9.75592 10.2441C9.9122 10.4004 10 10.6123 10 10.8333C10 11.0543 9.9122 11.2663 9.75592 11.4226C9.59964 11.5789 9.38768 11.6667 9.16667 11.6667H4.16667C3.94565 11.6667 3.73369 11.5789 3.57741 11.4226C3.42113 11.2663 3.33333 11.0543 3.33333 10.8333C3.33333 10.6123 3.42113 10.4004 3.57741 10.2441C3.73369 10.0878 3.94565 10 4.16667 10H9.16667ZM5 6.66667C5.22101 6.66667 5.43298 6.75446 5.58926 6.91074C5.74554 7.06702 5.83333 7.27899 5.83333 7.5C5.83333 7.72101 5.74554 7.93297 5.58926 8.08926C5.43298 8.24554 5.22101 8.33333 5 8.33333H4.16667C3.94565 8.33333 3.73369 8.24554 3.57741 8.08926C3.42113 7.93297 3.33333 7.72101 3.33333 7.5C3.33333 7.27899 3.42113 7.06702 3.57741 6.91074C3.73369 6.75446 3.94565 6.66667 4.16667 6.66667H5ZM8.33333 2.01167V5H11.3217L8.33333 2.01167Z" fill="#4F4F4F"/>
</svg>
