<svg width="20" height="20" viewBox="0 0 20 20" fill="none" xmlns="http://www.w3.org/2000/svg">
<path fill-rule="evenodd" clip-rule="evenodd" d="M5.83333 2.5C6.03744 2.50003 6.23445 2.57496 6.38698 2.7106C6.53951 2.84623 6.63695 3.03312 6.66083 3.23583L6.66667 3.33333H13.3333C13.3334 3.12922 13.4083 2.93222 13.5439 2.77969C13.6796 2.62716 13.8665 2.52971 14.0692 2.50583L14.1667 2.5H16.6667C16.8708 2.50003 17.0678 2.57496 17.2203 2.7106C17.3728 2.84623 17.4703 3.03312 17.4942 3.23583L17.5 3.33333V5.83333C17.5 6.03744 17.425 6.23445 17.2894 6.38698C17.1538 6.53951 16.9669 6.63695 16.7642 6.66083L16.6667 6.66667V13.3333C16.8708 13.3334 17.0678 13.4083 17.2203 13.5439C17.3728 13.6796 17.4703 13.8665 17.4942 14.0692L17.5 14.1667V16.6667C17.5 16.8708 17.425 17.0678 17.2894 17.2203C17.1538 17.3728 16.9669 17.4703 16.7642 17.4942L16.6667 17.5H14.1667C13.9626 17.5 13.7656 17.425 13.613 17.2894C13.4605 17.1538 13.363 16.9669 13.3392 16.7642L13.3333 16.6667H6.66667C6.66664 16.8708 6.5917 17.0678 6.45607 17.2203C6.32044 17.3728 6.13354 17.4703 5.93083 17.4942L5.83333 17.5H3.33333C3.12922 17.5 2.93222 17.425 2.77969 17.2894C2.62716 17.1538 2.52971 16.9669 2.50583 16.7642L2.5 16.6667V14.1667C2.50003 13.9626 2.57496 13.7656 2.7106 13.613C2.84623 13.4605 3.03312 13.363 3.23583 13.3392L3.33333 13.3333V6.66667C3.12922 6.66664 2.93222 6.5917 2.77969 6.45607C2.62716 6.32044 2.52971 6.13354 2.50583 5.93083L2.5 5.83333V3.33333C2.50003 3.12922 2.57496 2.93222 2.7106 2.77969C2.84623 2.62716 3.03312 2.52971 3.23583 2.50583L3.33333 2.5H5.83333ZM5 15H4.16667V15.8333H5V15ZM15.8333 15H15V15.8333H15.8333V15ZM13.3333 5H6.66667V5.83333C6.66667 6.05435 6.57887 6.26631 6.42259 6.42259C6.26631 6.57887 6.05435 6.66667 5.83333 6.66667H5V13.3333H5.83333C6.05435 13.3333 6.26631 13.4211 6.42259 13.5774C6.57887 13.7337 6.66667 13.9457 6.66667 14.1667V15H13.3333V14.1667C13.3333 13.9457 13.4211 13.7337 13.5774 13.5774C13.7337 13.4211 13.9457 13.3333 14.1667 13.3333H15V6.66667H14.1667C13.9457 6.66667 13.7337 6.57887 13.5774 6.42259C13.4211 6.26631 13.3333 6.05435 13.3333 5.83333V5ZM10 5.83333C10.2939 5.83341 10.5805 5.92433 10.8207 6.09365C11.0609 6.26297 11.2429 6.50241 11.3417 6.77917L13.285 12.22C13.3593 12.4282 13.3478 12.6574 13.2531 12.8571C13.1584 13.0568 12.9882 13.2107 12.78 13.285C12.6769 13.3218 12.5676 13.3379 12.4583 13.3324C12.349 13.3269 12.2418 13.3 12.1429 13.2531C11.9432 13.1584 11.7893 12.9882 11.715 12.78L11.3175 11.6667H8.6825L8.285 12.78C8.21074 12.9882 8.05682 13.1584 7.85709 13.2531C7.65736 13.3478 7.42819 13.3593 7.22 13.285C7.0118 13.2107 6.84164 13.0568 6.74693 12.8571C6.65223 12.6574 6.64074 12.4282 6.715 12.22L8.65833 6.77833C8.75729 6.50173 8.93931 6.26248 9.17948 6.09331C9.41965 5.92415 9.70623 5.83335 10 5.83333ZM10 7.9775L9.2775 10H10.7225L10 7.9775ZM5 4.16667H4.16667V5H5V4.16667ZM15.8333 4.16667H15V5H15.8333V4.16667Z" fill="#111111"/>
</svg>
