<svg width="20" height="20" viewBox="0 0 20 20" fill="none" xmlns="http://www.w3.org/2000/svg">
<path d="M15.8335 10C16.0459 10.0002 16.2502 10.0816 16.4047 10.2274C16.5591 10.3732 16.6521 10.5725 16.6645 10.7845C16.677 10.9965 16.608 11.2053 16.4717 11.3682C16.3353 11.5311 16.142 11.6357 15.9311 11.6608L15.8335 11.6667H14.0752C14.256 11.9392 14.4019 12.2367 14.5069 12.5525C15.3011 14.935 13.5827 17.3933 11.1044 17.4967L10.9419 17.5H9.52355C8.66966 17.5001 7.83132 17.2716 7.09565 16.8381C6.35998 16.4046 5.75384 15.782 5.34022 15.035L5.24688 14.8575L5.09522 14.5533C5.01434 14.4 4.98373 14.2251 5.00772 14.0533C5.03065 13.8865 5.1036 13.7305 5.21694 13.606C5.33028 13.4814 5.4787 13.3941 5.64264 13.3556C5.80658 13.3171 5.97834 13.3291 6.1353 13.3902C6.29226 13.4512 6.42704 13.5583 6.52188 13.6975L6.55688 13.7525L6.73772 14.1117C6.98295 14.6022 7.35338 15.0193 7.81153 15.3207C8.26969 15.6222 8.79933 15.7973 9.34688 15.8283L9.52355 15.8333H10.941C11.3983 15.8337 11.843 15.6841 12.2072 15.4077C12.5714 15.1312 12.835 14.743 12.9576 14.3025C13.0802 13.862 13.0551 13.3935 12.8861 12.9686C12.7171 12.5437 12.4135 12.1859 12.0219 11.95L11.8769 11.87L11.4702 11.6667H4.16688C3.95448 11.6664 3.75019 11.5851 3.59574 11.4393C3.4413 11.2935 3.34835 11.0942 3.33591 10.8822C3.32346 10.6701 3.39244 10.4614 3.52877 10.2985C3.6651 10.1356 3.85847 10.0309 4.06938 10.0058L4.16688 10H15.8335ZM10.4769 2.5C11.3648 2.49987 12.2352 2.74702 12.9906 3.21375C13.7459 3.68048 14.3564 4.34834 14.7536 5.1425L14.9036 5.445C14.9871 5.60636 15.0157 5.79056 14.985 5.96965C14.9544 6.14873 14.8661 6.31293 14.7337 6.43734C14.6013 6.56175 14.4319 6.63957 14.2513 6.659C14.0706 6.67843 13.8886 6.6384 13.7327 6.545C13.627 6.48071 13.537 6.39358 13.4694 6.29L13.4402 6.24167L13.2627 5.88833C13.0041 5.37095 12.6064 4.93582 12.1144 4.63173C11.6223 4.32764 11.0553 4.1666 10.4769 4.16667H9.05938C8.58786 4.1662 8.13001 4.32507 7.76012 4.6175C7.39023 4.90993 7.12999 5.31876 7.02163 5.77766C6.91328 6.23656 6.96315 6.71862 7.16317 7.14562C7.36319 7.57261 7.70162 7.9195 8.12355 8.13L10.1969 9.16667H6.67772C6.12796 8.71715 5.7168 8.12108 5.49188 7.4475C4.68188 5.01417 6.49272 2.5 9.05938 2.5H10.4769Z" fill="#111111"/>
</svg>
