<svg width="20" height="18" viewBox="0 0 20 18" fill="none" xmlns="http://www.w3.org/2000/svg">
<path d="M16 6C16.7698 5.99996 17.5233 6.22207 18.1701 6.63967C18.8168 7.05728 19.3293 7.65264 19.646 8.3543C19.9627 9.05596 20.0702 9.83412 19.9557 10.5954C19.8411 11.3566 19.5092 12.0687 19 12.646V16.838C19 17.0255 18.9521 17.2099 18.8608 17.3737C18.7695 17.5375 18.6379 17.6753 18.4783 17.7739C18.3188 17.8724 18.1368 17.9286 17.9494 17.9371C17.7621 17.9455 17.5757 17.9059 17.408 17.822L16 17.118L14.592 17.822C14.4243 17.9059 14.2379 17.9455 14.0506 17.9371C13.8632 17.9286 13.6812 17.8724 13.5217 17.7739C13.3621 17.6753 13.2305 17.5375 13.1392 17.3737C13.0479 17.2099 13 17.0255 13 16.838V12.646C12.4908 12.0687 12.1589 11.3566 12.0443 10.5954C11.9298 9.83412 12.0373 9.05596 12.354 8.3543C12.6707 7.65264 13.1832 7.05728 13.8299 6.63967C14.4767 6.22207 15.2302 5.99996 16 6ZM18 0C18.5304 0 19.0391 0.210714 19.4142 0.585786C19.7893 0.960859 20 1.46957 20 2V4C20 4.26522 19.8946 4.51957 19.7071 4.70711C19.5196 4.89464 19.2652 5 19 5C18.7348 5 18.4804 4.89464 18.2929 4.70711C18.1054 4.51957 18 4.26522 18 4V2H2V14H10C10.2652 14 10.5196 14.1054 10.7071 14.2929C10.8946 14.4804 11 14.7348 11 15C11 15.2652 10.8946 15.5196 10.7071 15.7071C10.5196 15.8946 10.2652 16 10 16H2C1.46957 16 0.960859 15.7893 0.585786 15.4142C0.210714 15.0391 0 14.5304 0 14V2C0 1.46957 0.210714 0.960859 0.585786 0.585786C0.960859 0.210714 1.46957 0 2 0H18ZM17 13.874C16.344 14.0429 15.656 14.0429 15 13.874V15.382L15.553 15.106C15.6918 15.0366 15.8448 15.0005 16 15.0005C16.1552 15.0005 16.3082 15.0366 16.447 15.106L17 15.382V13.874ZM16 8C15.4696 8 14.9609 8.21071 14.5858 8.58579C14.2107 8.96086 14 9.46957 14 10C14 10.5304 14.2107 11.0391 14.5858 11.4142C14.9609 11.7893 15.4696 12 16 12C16.5304 12 17.0391 11.7893 17.4142 11.4142C17.7893 11.0391 18 10.5304 18 10C18 9.46957 17.7893 8.96086 17.4142 8.58579C17.0391 8.21071 16.5304 8 16 8ZM7 9C7.25488 9.00028 7.50003 9.09788 7.68537 9.27285C7.8707 9.44782 7.98224 9.68695 7.99717 9.94139C8.01211 10.1958 7.92933 10.4464 7.76574 10.6418C7.60215 10.8373 7.3701 10.9629 7.117 10.993L7 11H5C4.74512 10.9997 4.49997 10.9021 4.31463 10.7272C4.1293 10.5522 4.01777 10.313 4.00283 10.0586C3.98789 9.80416 4.07067 9.55362 4.23426 9.35817C4.39786 9.16271 4.6299 9.0371 4.883 9.007L5 9H7ZM11 5C11.2652 5 11.5196 5.10536 11.7071 5.29289C11.8946 5.48043 12 5.73478 12 6C12 6.26522 11.8946 6.51957 11.7071 6.70711C11.5196 6.89464 11.2652 7 11 7H5C4.73478 7 4.48043 6.89464 4.29289 6.70711C4.10536 6.51957 4 6.26522 4 6C4 5.73478 4.10536 5.48043 4.29289 5.29289C4.48043 5.10536 4.73478 5 5 5H11Z" fill="#4F4F4F"/>
</svg>
