<svg width="14" height="16" viewBox="0 0 14 16" fill="none" xmlns="http://www.w3.org/2000/svg">
<path d="M2.54167 4.95816C2.61906 5.03564 2.71097 5.0971 2.81213 5.13904C2.9133 5.18098 3.02174 5.20256 3.13125 5.20256C3.24076 5.20256 3.3492 5.18098 3.45037 5.13904C3.55153 5.0971 3.64344 5.03564 3.72083 4.95816L5.83333 2.84482V10.2057C5.83333 10.4267 5.92113 10.6386 6.07741 10.7949C6.23369 10.9512 6.44565 11.039 6.66667 11.039C6.88768 11.039 7.09964 10.9512 7.25592 10.7949C7.4122 10.6386 7.5 10.4267 7.5 10.2057V2.84482L9.61333 4.95816C9.69076 5.03553 9.78266 5.09689 9.8838 5.13874C9.98494 5.18059 10.0933 5.20211 10.2028 5.20207C10.3123 5.20204 10.4206 5.18044 10.5217 5.13851C10.6228 5.09659 10.7147 5.03516 10.7921 4.95774C10.8695 4.88031 10.9308 4.78841 10.9727 4.68727C11.0145 4.58613 11.036 4.47773 11.036 4.36828C11.036 4.25882 11.0144 4.15044 10.9724 4.04933C10.9305 3.94822 10.8691 3.85636 10.7917 3.77899L7.25583 0.243989C7.09956 0.0877627 6.88764 0 6.66667 0C6.4457 0 6.23377 0.0877627 6.0775 0.243989L2.54167 3.77899C2.46419 3.85638 2.40272 3.94829 2.36078 4.04946C2.31885 4.15062 2.29726 4.25906 2.29726 4.36857C2.29726 4.47809 2.31885 4.58652 2.36078 4.68769C2.40272 4.78885 2.46419 4.88076 2.54167 4.95816ZM12.5 15.2057C12.721 15.2057 12.933 15.1179 13.0893 14.9616C13.2455 14.8053 13.3333 14.5933 13.3333 14.3723C13.3333 14.1513 13.2455 13.9393 13.0893 13.7831C12.933 13.6268 12.721 13.539 12.5 13.539H0.833333C0.61232 13.539 0.400358 13.6268 0.244078 13.7831C0.0877975 13.9393 0 14.1513 0 14.3723C0 14.5933 0.0877975 14.8053 0.244078 14.9616C0.400358 15.1179 0.61232 15.2057 0.833333 15.2057H12.5Z" fill="#7067ED"/>
</svg>
