<svg width="60" height="60" viewBox="0 0 60 60" fill="none" xmlns="http://www.w3.org/2000/svg">
<g clip-path="url(#clip0_3318_1035)">
<path fill-rule="evenodd" clip-rule="evenodd" d="M38.285 5C39.611 5.00028 40.8825 5.52725 41.82 6.465L53.535 18.18C54.4727 19.1175 54.9997 20.389 55 21.715V38.285C54.9997 39.611 54.4727 40.8825 53.535 41.82L41.82 53.535C40.8825 54.4727 39.611 54.9997 38.285 55H21.715C20.389 54.9997 19.1175 54.4727 18.18 53.535L6.465 41.82C5.52725 40.8825 5.00028 39.611 5 38.285V21.715C5.00028 20.389 5.52725 19.1175 6.465 18.18L18.18 6.465C19.1175 5.52725 20.389 5.00028 21.715 5H38.285ZM30 37.5C29.337 37.5 28.7011 37.7634 28.2322 38.2322C27.7634 38.7011 27.5 39.337 27.5 40C27.5 40.663 27.7634 41.2989 28.2322 41.7678C28.7011 42.2366 29.337 42.5 30 42.5C30.663 42.5 31.2989 42.2366 31.7678 41.7678C32.2366 41.2989 32.5 40.663 32.5 40C32.5 39.337 32.2366 38.7011 31.7678 38.2322C31.2989 37.7634 30.663 37.5 30 37.5ZM30 15C29.3877 15.0001 28.7967 15.2249 28.3391 15.6318C27.8815 16.0387 27.5891 16.5994 27.5175 17.2075L27.5 17.5V32.5C27.5007 33.1372 27.7447 33.7501 28.1821 34.2134C28.6195 34.6768 29.2174 34.9556 29.8535 34.9929C30.4896 35.0303 31.1159 34.8233 31.6046 34.4143C32.0932 34.0054 32.4072 33.4252 32.4825 32.7925L32.5 32.5V17.5C32.5 16.837 32.2366 16.2011 31.7678 15.7322C31.2989 15.2634 30.663 15 30 15Z" fill="#F8A100"/>
</g>
<defs>
<clipPath id="clip0_3318_1035">
<rect width="60" height="60" fill="white"/>
</clipPath>
</defs>
</svg>
