<svg width="105" height="71" viewBox="0 0 105 71" fill="none" xmlns="http://www.w3.org/2000/svg">
<path class="background" fill-rule="evenodd" clip-rule="evenodd" d="M0 1.67712C0 0.934991 0.601615 0.333374 1.34375 0.333374H103.656C104.398 0.333374 105 0.934991 105 1.67712C105 2.41926 104.398 3.02087 103.656 3.02087H102.396C101.349 3.02087 100.5 3.86967 100.5 4.91671C100.5 5.96375 101.349 6.81254 102.396 6.81254H103.104C104.151 6.81254 105 7.66133 105 8.70837C105 9.75541 104.151 10.6042 103.104 10.6042H102.396C101.349 10.6042 100.5 11.453 100.5 12.5C100.5 13.5471 101.349 14.3959 102.396 14.3959H103.104C104.151 14.3959 105 15.2447 105 16.2917C105 17.3387 104.151 18.1875 103.104 18.1875H102.396C101.349 18.1875 100.5 19.0363 100.5 20.0834C100.5 21.1304 101.349 21.9792 102.396 21.9792H103.104C104.151 21.9792 105 22.828 105 23.875C105 24.9221 104.151 25.7709 103.104 25.7709H102.396C101.349 25.7709 100.5 26.6197 100.5 27.6667C100.5 28.7137 101.349 29.5625 102.396 29.5625H103.104C104.151 29.5625 105 30.4113 105 31.4584C105 32.5054 104.151 33.3542 103.104 33.3542H102.396C101.349 33.3542 100.5 34.203 100.5 35.25C100.5 36.2971 101.349 37.1459 102.396 37.1459H103.104C104.151 37.1459 105 37.9947 105 39.0417C105 40.0887 104.151 40.9375 103.104 40.9375H102.396C101.349 40.9375 100.5 41.7863 100.5 42.8334C100.5 43.8804 101.349 44.7292 102.396 44.7292H103.104C104.151 44.7292 105 45.578 105 46.625C105 47.6721 104.151 48.5209 103.104 48.5209H102.396C101.349 48.5209 100.5 49.3697 100.5 50.4167C100.5 51.4637 101.349 52.3125 102.396 52.3125H103.104C104.151 52.3125 105 53.1613 105 54.2084C105 55.2554 104.151 56.1042 103.104 56.1042H102.396C101.349 56.1042 100.5 56.953 100.5 58C100.5 59.0471 101.349 59.8959 102.396 59.8959H103.104C104.151 59.8959 105 60.7447 105 61.7917C105 62.8388 104.151 63.6875 103.104 63.6875H102.396C101.349 63.6875 100.5 64.5363 100.5 65.5834C100.5 66.6304 101.349 67.4792 102.396 67.4792H103.573C104.361 67.4792 105 68.1181 105 68.9063C105 69.6945 104.361 70.3334 103.573 70.3334H1.42708C0.638926 70.3334 0 69.6945 0 68.9063C0 68.1181 0.638927 67.4792 1.42708 67.4792H2.60417C3.65121 67.4792 4.5 66.6304 4.5 65.5834C4.5 64.5363 3.65121 63.6875 2.60417 63.6875H1.89584C0.848795 63.6875 0 62.8388 0 61.7917C0 60.7447 0.848795 59.8959 1.89584 59.8959H2.60417C3.65121 59.8959 4.5 59.0471 4.5 58C4.5 56.953 3.65121 56.1042 2.60417 56.1042H1.89583C0.848794 56.1042 0 55.2554 0 54.2084C0 53.1613 0.848794 52.3125 1.89583 52.3125H2.60417C3.65121 52.3125 4.5 51.4637 4.5 50.4167C4.5 49.3697 3.65121 48.5209 2.60417 48.5209H1.89584C0.848795 48.5209 0 47.6721 0 46.625C0 45.578 0.848795 44.7292 1.89584 44.7292H2.60417C3.65121 44.7292 4.5 43.8804 4.5 42.8334C4.5 41.7863 3.65121 40.9375 2.60417 40.9375H1.89583C0.848793 40.9375 0 40.0887 0 39.0417C0 37.9947 0.848793 37.1459 1.89583 37.1459H2.60417C3.65121 37.1459 4.5 36.2971 4.5 35.25C4.5 34.203 3.65121 33.3542 2.60417 33.3542H1.89583C0.848794 33.3542 0 32.5054 0 31.4584C0 30.4113 0.848794 29.5625 1.89583 29.5625H2.60417C3.65121 29.5625 4.5 28.7137 4.5 27.6667C4.5 26.6197 3.65121 25.7709 2.60417 25.7709H1.89583C0.848793 25.7709 0 24.9221 0 23.875C0 22.828 0.848793 21.9792 1.89583 21.9792H2.60417C3.65121 21.9792 4.5 21.1304 4.5 20.0834C4.5 19.0363 3.65121 18.1875 2.60417 18.1875H1.89583C0.848794 18.1875 0 17.3387 0 16.2917C0 15.2447 0.848794 14.3959 1.89583 14.3959H2.60417C3.65121 14.3959 4.5 13.5471 4.5 12.5C4.5 11.453 3.65121 10.6042 2.60417 10.6042H1.89583C0.848793 10.6042 0 9.75541 0 8.70837C0 7.66133 0.848793 6.81254 1.89583 6.81254H2.60417C3.65121 6.81254 4.5 5.96375 4.5 4.91671C4.5 3.86967 3.65121 3.02087 2.60417 3.02087H1.34375C0.601617 3.02087 0 2.41926 0 1.67712Z" fill="#000"/>
<path d="M69.1133 35.6693C69.1133 34.3959 68.5833 33.8685 67.3047 33.8685H47.8451C48.1094 33.698 48.2474 33.6016 48.3919 33.5183C53.7969 30.3959 59.2018 27.2761 64.6068 24.1563C64.7891 24.0495 64.9753 23.948 65.1523 23.8334C65.8411 23.3855 66.0846 22.5899 65.6784 21.8763C64.2135 19.306 62.7344 16.7448 61.2383 14.1941C60.8203 13.4818 59.9805 13.3099 59.2279 13.7344C57.9128 14.4766 56.6068 15.2383 55.2956 15.9909C55.1589 16.0691 55.0169 16.1407 54.8216 16.2448C54.7812 15.8737 54.7656 15.556 54.7096 15.2448C54.2383 12.6654 52.4193 10.875 49.8112 10.4102C49.7318 10.3972 49.6576 10.3594 49.582 10.3334H48.2148C47.7943 10.448 47.3646 10.5391 46.9531 10.6823C44.5078 11.5391 42.9596 13.9063 43.0729 16.5691C43.1354 18.0313 43.1784 19.4935 43.2344 21.0456C43.0273 20.9245 42.8776 20.8425 42.7331 20.7526C41.6146 20.0573 40.5065 19.3451 39.3789 18.6654C35.7695 16.4857 31.3242 18.392 30.5117 22.5287C30.0378 24.9336 30.9102 26.9037 32.8555 28.3933C32.9583 28.4727 33.0664 28.5443 33.1706 28.6211C33.181 28.6289 33.1823 28.6472 33.2044 28.7006C32.5534 29.0795 31.8971 29.4623 31.2383 29.8425C30.5339 30.2474 29.8372 30.668 29.1185 31.0469C28.6081 31.3151 28.2161 31.6693 28 32.2084V32.892C29.5677 35.5651 31.1276 38.2448 32.7083 40.9102C33.1328 41.6276 33.9596 41.8151 34.7096 41.4076C35.4089 41.03 36.0951 40.6276 36.7878 40.237C36.7969 40.2318 36.8177 40.2448 36.8867 40.267V40.8099C36.8867 46.6628 36.8997 52.5157 36.8724 58.3685C36.8685 59.2774 37.1224 59.9414 37.9609 60.3334H68.0391C68.8815 59.9414 69.1302 59.2735 69.1263 58.3672C69.1029 50.8008 69.1133 43.2357 69.1133 35.6693ZM51.5625 36.8373H54.431V46.3607C53.2005 45.3256 52.9635 45.3256 51.5625 46.3347V36.8373ZM46.0208 16.0821C46.0378 14.6042 47.1576 13.4584 48.5872 13.2787C49.9193 13.112 51.2396 13.9362 51.6927 15.2175C52.1706 16.5704 51.6224 18.1016 50.3932 18.8151C49.0195 19.6107 47.6393 20.3972 46.1667 21.2422C46.1107 19.4545 46.0026 17.7683 46.0208 16.0821ZM33.9544 21.793C34.8372 20.6914 36.3646 20.3308 37.5924 21.0339C39.0286 21.8555 40.4167 22.7605 41.9193 23.6875C40.8945 24.2774 39.9427 24.8269 38.9896 25.3763C38.5534 25.6276 38.1185 25.8789 37.6823 26.1302C36.4349 26.8477 34.9531 26.6003 34.0247 25.5183C33.1107 24.4532 33.0807 22.8842 33.9544 21.793ZM34.4831 38.1654C33.4831 36.4714 32.4948 34.7982 31.4805 33.0795C40.8151 27.7071 50.1198 22.3516 59.4714 16.9688C60.4635 18.6875 61.4206 20.3451 62.4023 22.0456C53.0924 27.4206 43.806 32.7826 34.4831 38.1654ZM66.1602 57.3685H39.8385C39.832 57.211 39.8177 57.0534 39.8177 56.8959C39.8164 50.9076 39.819 44.918 39.8099 38.9284C39.8099 38.6016 39.8867 38.405 40.1953 38.2396C41.0417 37.7891 41.8138 37.1094 42.7096 36.8685C43.6055 36.6263 44.6146 36.8021 45.5742 36.7995C46.5651 36.7956 47.5547 36.7982 48.6055 36.7982V37.3985C48.6055 41.5157 48.6081 45.6329 48.6016 49.7513C48.6016 50.2461 48.6979 50.6888 49.0651 51.0391C49.6484 51.5964 50.5026 51.5899 51.1276 50.987C51.7474 50.3907 52.3333 49.7605 52.987 49.0899C53.638 49.7474 54.2318 50.3659 54.8451 50.9636C55.3841 51.4896 56.0378 51.5925 56.6289 51.2579C57.1992 50.9362 57.3984 50.4232 57.3984 49.7865C57.3906 45.6693 57.3945 41.5508 57.3945 37.4336V36.823H66.1602V57.3685Z" fill="white"/>
<path d="M78.0009 29.0834V29.8647C77.4254 31.224 76.1962 30.9037 75.0712 30.9454C75.0712 31.4311 75.0777 31.8816 75.0699 32.3321C75.0543 33.2266 74.4189 33.879 73.5843 33.866C72.7678 33.8529 72.1572 33.2084 72.1429 32.336C72.1363 31.8855 72.1415 31.4337 72.1415 30.9389C71.6429 30.9389 71.1923 30.9454 70.7418 30.9363C69.8512 30.9193 69.1975 30.2761 69.2132 29.4441C69.2288 28.6303 69.8759 28.0235 70.7483 28.0105C71.1871 28.004 71.6259 28.0092 72.1415 28.0092C72.1415 27.5639 72.1389 27.1329 72.1415 26.7019C72.1481 25.7501 72.7366 25.0912 73.5882 25.0808C74.4593 25.0704 75.0647 25.7358 75.0712 26.7162C75.0738 27.1212 75.0712 27.5274 75.0712 27.9897C76.1585 28.0678 77.428 27.6928 78.0009 29.0834Z" fill="white"/>
<path d="M72.0413 20.6785C72.0439 21.4688 71.3863 22.1368 70.596 22.1472C69.8069 22.1576 69.1324 21.5027 69.1155 20.7136C69.0999 19.9232 69.747 19.2436 70.5374 19.2214C71.3473 19.198 72.0387 19.8673 72.0413 20.6785Z" fill="white"/>
<path d="M66.1801 29.4844C66.1736 30.2761 65.5082 30.9363 64.7178 30.9363C63.9275 30.9363 63.2348 30.2436 63.2543 29.4363C63.2751 28.6459 63.9522 27.9962 64.7426 28.0105C65.5343 28.0235 66.1879 28.6941 66.1801 29.4844Z" fill="white"/>
</svg>
