<svg width="10" height="14" viewBox="0 0 10 14" fill="none" xmlns="http://www.w3.org/2000/svg">
<path d="M9.81771 2.73438L7.26823 0.182292C7.15104 0.0651042 6.99219 0 6.82552 0H6.66667V3.33333H10V3.17448C10 3.01042 9.9349 2.85156 9.81771 2.73438ZM3.34375 8.75C2.8776 8.75 2.5 9.0651 2.5 9.45312C2.5 9.84375 2.88021 10.1562 3.34635 10.1562C3.8125 10.1562 4.1901 9.84115 4.1901 9.45312C4.1901 9.0651 3.8099 8.75 3.34375 8.75ZM5.83333 3.54167V0H4.17708V0.833333H3.34375V0H0.625C0.278646 0 0 0.278646 0 0.625V12.7083C0 13.0547 0.278646 13.3333 0.625 13.3333H9.375C9.72135 13.3333 10 13.0547 10 12.7083V4.16667H6.45833C6.11458 4.16667 5.83333 3.88542 5.83333 3.54167ZM2.4974 0.833333H3.33073V1.66667H2.4974V0.833333ZM3.33854 10.8333C2.47396 10.8333 1.82812 10.0417 2 9.19531L2.51042 6.66667V5.83333H3.34375V5H2.51042V4.16667H3.34375V3.33333H2.51042V2.5H3.34375V1.66667H4.17708V2.5H3.34375V3.33333H4.17708V4.16667H3.34375V5H4.17708V5.83333H3.34375V6.66667H3.91927C4.06771 6.66667 4.19792 6.77344 4.22656 6.91927L4.67708 9.20312C4.84375 10.0469 4.19792 10.8333 3.33854 10.8333Z" fill="black" fill-opacity="0.8"/>
</svg>
